<?xml version="1.0" encoding="UTF-8"?> <svg xmlns="http://www.w3.org/2000/svg" id="Layer_1" data-name="Layer 1" viewBox="0 0 194 100"><defs><style>.cls-1{fill:#3a3c3f;}.cls-2{fill:#fff;}</style></defs><title>ABC_Brand_Logo</title><path class="cls-1" d="M189.45,48.81C188.38,32.74,172.36,22.07,159.1,16c-21.28-9.7-45.58-12.76-68.79-12C69,4.76,46.69,8.77,27.8,19.12,15.83,25.69,2.65,36.88,3.65,52c1,15.28,15.66,25.71,28.2,31.77,19.9,9.65,42.78,13.09,64.71,13.09,22.64,0,46.42-3.64,66.73-14.11C176,76.17,190.5,64.71,189.45,48.81ZM161.16,73.29c-18.95,11.35-42.91,14.34-64.6,14.34-16.6,0-33.51-2-49.25-7.38C36.79,76.63,25,71.13,18.83,61.36,5,39.3,37,24.34,53.33,19.76c23.5-6.63,49.28-7.23,73.28-3,16.37,2.88,38.13,8.64,47.66,23.76C182.61,53.75,172.6,66.42,161.16,73.29Z"></path><path class="cls-1" d="M77,42.35c-2.37-.55-5.17-.19-7.6-.19l-1.34,6.42h2.61c2,0,4.66.2,6.38-1.08S79.67,42.94,77,42.35Z"></path><path class="cls-1" d="M170.92,50.94c0-16-25.33-23.14-37.17-26a161.51,161.51,0,0,0-74.4,0c-11.84,2.85-37.17,10-37.17,26s25.32,23.14,37.17,26a161,161,0,0,0,74.4,0C145.59,74.08,170.92,67,170.92,50.94ZM58.3,51.7c-1.13,5.08-3.26,9.65-8.88,10.59-5.12.87-11.63-.89-11.63-7.11.27-5.64,2.35-11.56,3.57-17h4.89l-2.83,13-.73,3.18c-.46,4.1,4.39,5,7.45,3.35,2.45-1.33,2.94-4.59,3.47-7.08q1.3-6.23,2.6-12.48h4.93ZM81.67,62.06h-5.3c-.88-2.82-2-6.43-3.87-8.72-1.27-1.49-3.43-1.2-5.2-1.15l-2.06,9.87H60.32l5-23.92h10.6c10,0,9.74,12.52.29,13.77C79,54.35,80.35,58.75,81.67,62.06Zm17.18,0L92.42,46,89,62.06H84.46l5-23.92h4.6l6.45,16,3.33-16h4.6c-1.66,8-3.31,16-5,23.92Zm28.08,0h-18.5l5-23.92h17.74l-.83,4H117.51l-1.17,5.37h12.43l-.83,4H115.46l-1.39,6.5H128C127.84,58.69,127.49,62.06,126.93,62.06Zm12-12.06L133,38.14h5.14l2.33,4.38c.61,1.2,1.24,2.43,1.82,3.65,2.25-2.73,4.61-5.37,7-8h6.27L144.59,50.71l5.87,11.35h-5.54l-1.83-3.47a38,38,0,0,1-1.89-4c-1.78,2.7-4.3,5.05-6.45,7.44h-6.41Z"></path><path class="cls-2" d="M126.61,16.77c-24-4.24-49.78-3.64-73.28,3C37,24.34,5,39.3,18.83,61.36c6.16,9.77,18,15.27,28.48,18.89C63.05,85.66,80,87.63,96.56,87.63c21.69,0,45.65-3,64.6-14.34,11.44-6.87,21.45-19.54,13.11-32.76C164.74,25.41,143,19.65,126.61,16.77ZM59.35,76.92c-11.85-2.84-37.17-10-37.17-26S47.51,27.8,59.35,25a161.51,161.51,0,0,1,74.4,0c11.84,2.85,37.17,10,37.17,26s-25.33,23.14-37.17,26A161,161,0,0,1,59.35,76.92Z"></path><path class="cls-2" d="M56.21,38.14q-1.3,6.26-2.6,12.48c-.53,2.49-1,5.75-3.47,7.08-3.06,1.61-7.91.75-7.45-3.35l.73-3.18,2.83-13H41.36c-1.22,5.48-3.3,11.4-3.57,17,0,6.22,6.51,8,11.63,7.11,5.62-.94,7.75-5.51,8.88-10.59l2.84-13.56Z"></path><path class="cls-2" d="M75.92,38.14H65.32l-5,23.92h4.92l2.06-9.87c1.77,0,3.93-.34,5.2,1.15,1.91,2.29,3,5.9,3.87,8.72h5.3c-1.32-3.31-2.71-7.71-5.46-10.15C85.66,50.66,86,38.14,75.92,38.14ZM77,47.5c-1.72,1.28-4.36,1.08-6.38,1.08H68.05l1.34-6.42c2.43,0,5.23-.36,7.6.19C79.67,42.94,78.62,46.34,77,47.5Z"></path><path class="cls-2" d="M103.84,38.14l-3.33,16-6.45-16h-4.6l-5,23.92H89L92.42,46l6.43,16.06h4.61c1.67-8,3.32-16,5-23.92Z"></path><path class="cls-2" d="M115.46,51.55h12.48l.83-4H116.34l1.17-5.37h12.83l.83-4H113.43l-5,23.92h18.5c.56,0,.91-3.37,1-4H114.07Z"></path><path class="cls-2" d="M141.2,54.62a38,38,0,0,0,1.89,4l1.83,3.47h5.54l-5.87-11.35,10.93-12.57h-6.27c-2.39,2.66-4.75,5.3-7,8-.58-1.22-1.21-2.45-1.82-3.65l-2.33-4.38H133L138.89,50,128.34,62.06h6.41C136.9,59.67,139.42,57.32,141.2,54.62Z"></path></svg> 