<?xml version="1.0" encoding="UTF-8" standalone="no"?> <svg xmlns="http://www.w3.org/2000/svg" version="1.0" width="482.000000pt" height="187.000000pt" viewBox="0 0 482.000000 187.000000" preserveAspectRatio="xMidYMid meet"><g transform="translate(0.000000,187.000000) scale(0.100000,-0.100000)" fill="#000000" stroke="none"><path d="M3260 1297 c-37 -18 -41 -80 -7 -102 50 -32 108 10 94 68 -4 13 -18 29 -32 35 -31 14 -25 14 -55 -1z"></path><path d="M841 1169 c-92 -18 -185 -99 -215 -187 -39 -114 -9 -229 81 -314 104 -97 259 -102 381 -12 22 16 22 16 22 -20 0 -37 0 -37 38 -34 l37 3 3 263 2 262 -40 0 c-34 0 -40 -3 -40 -22 l0 -21 -23 21 c-53 50 -164 78 -246 61z m175 -111 c123 -84 126 -254 7 -344 -137 -103 -333 -2 -333 172 0 70 33 130 94 172 43 28 56 32 116 32 60 0 73 -4 116 -32z"></path><path d="M1711 1165 c-147 -41 -241 -189 -212 -333 45 -227 310 -319 480 -166 28 25 51 50 51 55 0 6 -16 17 -37 25 -33 14 -37 14 -45 0 -14 -24 -89 -64 -134 -71 -78 -13 -161 27 -209 100 -24 36 -26 48 -23 117 3 68 6 80 34 115 46 57 98 83 166 83 69 0 95 -9 142 -50 33 -30 38 -31 71 -20 19 6 35 17 35 23 0 6 -21 30 -46 53 -72 68 -179 95 -273 69z"></path><path d="M2563 1170 c-94 -19 -184 -94 -218 -182 -22 -60 -18 -176 10 -233 44 -91 160 -165 259 -165 58 0 139 26 174 55 17 14 33 25 36 25 3 0 6 -16 6 -36 0 -35 1 -35 38 -32 l37 3 3 263 2 262 -40 0 c-34 0 -40 -3 -40 -21 0 -19 -1 -19 -33 5 -66 50 -155 71 -234 56z m169 -109 c32 -20 53 -44 72 -82 44 -89 31 -175 -37 -243 -82 -81 -200 -87 -283 -14 -56 49 -77 100 -72 174 7 120 87 194 209 194 55 0 72 -5 111 -29z"></path><path d="M3903 1170 c-214 -43 -308 -298 -173 -468 92 -117 273 -146 389 -61 l40 28 3 -32 c3 -29 6 -32 41 -35 l37 -3 0 265 0 266 -40 0 c-30 0 -40 -4 -40 -16 0 -13 -5 -12 -29 6 -65 46 -152 65 -228 50z m140 -93 c39 -17 104 -87 113 -122 3 -14 4 -56 2 -94 -4 -85 -36 -132 -112 -167 -84 -39 -160 -28 -228 34 -51 46 -68 85 -68 157 0 85 39 148 115 188 37 20 134 22 178 4z"></path><path d="M3250 864 l0 -265 38 3 37 3 3 263 2 262 -40 0 -40 0 0 -266z"></path></g></svg> 