<?xml version="1.0" encoding="UTF-8" standalone="no"?> <svg xmlns="http://www.w3.org/2000/svg" version="1.0" width="1200.000000pt" height="600.000000pt" viewBox="0 0 1200.000000 600.000000" preserveAspectRatio="xMidYMid meet"><g transform="translate(0.000000,600.000000) scale(0.100000,-0.100000)" fill="#000000" stroke="none"><path d="M5085 4485 c-40 -39 -32 -96 17 -121 81 -42 154 47 97 120 -28 35 -80 36 -114 1z m100 -19 c19 -29 11 -72 -17 -87 -59 -32 -108 43 -65 99 17 21 65 14 82 -12z"></path><path d="M5110 4436 c0 -25 5 -46 10 -46 6 0 10 8 10 18 1 16 1 16 14 0 17 -23 30 -23 22 -2 -4 9 -1 23 5 31 15 17 4 29 -33 38 -28 7 -28 6 -28 -39z m45 14 c-3 -5 -10 -10 -16 -10 -5 0 -9 5 -9 10 0 6 7 10 16 10 8 0 12 -4 9 -10z"></path><path d="M2310 4460 c-11 -21 -20 -42 -20 -45 0 -3 16 -5 36 -5 24 0 34 -4 32 -12 -6 -16 -2 -15 -133 -17 -62 0 -105 -5 -105 -11 0 -6 27 -10 60 -10 33 0 60 -3 60 -6 0 -3 -29 -57 -65 -119 -36 -63 -65 -116 -65 -119 0 -3 11 -6 25 -6 14 0 25 -4 25 -10 0 -6 -32 -10 -75 -10 -43 0 -75 -4 -75 -10 0 -5 14 -10 30 -10 20 0 30 -5 30 -15 0 -11 13 -15 54 -15 50 0 56 3 80 35 27 35 27 35 106 35 l79 0 7 -35 6 -35 68 0 68 0 -19 83 c-10 45 -19 85 -19 90 0 4 20 7 45 7 25 0 45 -3 45 -7 -1 -5 -7 -37 -15 -73 -24 -110 -42 -100 174 -100 l189 0 6 38 c4 20 9 45 12 55 5 16 -5 17 -120 17 -133 0 -132 0 -120 48 6 21 11 22 113 22 l108 0 10 47 c6 27 10 49 9 50 -1 1 -50 3 -109 4 -88 2 -107 5 -102 17 3 7 5 22 5 33 0 18 8 19 124 19 l124 0 11 44 c6 25 11 50 11 55 0 7 -61 11 -184 11 -173 0 -184 -1 -189 -19 -7 -27 0 -31 55 -31 26 0 48 -4 48 -10 0 -6 -38 -10 -95 -10 -57 0 -95 -4 -95 -10 0 -5 14 -10 31 -10 l32 0 -6 -45 c-4 -25 -9 -56 -13 -70 l-6 -25 81 0 c47 0 81 -4 81 -10 0 -6 -78 -10 -215 -10 -184 0 -215 -2 -215 -15 0 -8 9 -15 20 -15 11 0 20 -4 20 -10 0 -5 -20 -10 -45 -10 -25 0 -45 3 -45 6 0 11 65 114 72 114 3 0 8 -10 10 -22 3 -21 10 -23 62 -26 l59 -3 -6 45 c-4 24 -14 76 -23 115 l-16 71 -54 0 c-52 0 -54 -1 -74 -40z"></path><path d="M3051 4378 c-13 -68 -25 -131 -28 -140 -3 -12 1 -18 11 -18 19 0 22 -20 4 -21 -7 0 -44 -1 -82 -2 -45 -1 -71 -6 -73 -14 -4 -10 13 -13 61 -13 36 0 66 -3 66 -7 -1 -5 -7 -34 -14 -65 l-14 -58 67 0 68 0 17 80 18 80 33 0 c48 0 82 -15 90 -40 6 -19 13 -21 68 -18 59 3 62 4 65 31 2 15 -3 40 -11 55 -13 28 -12 30 24 60 21 18 41 32 44 32 4 0 3 -29 0 -65 -9 -81 -1 -115 25 -115 11 0 20 -4 20 -10 0 -6 -57 -10 -150 -10 -127 0 -150 -2 -150 -15 0 -10 11 -15 35 -15 31 0 35 -3 35 -25 0 -24 2 -25 65 -25 63 0 65 1 65 25 0 23 4 25 45 25 31 0 55 -8 81 -25 32 -22 47 -25 124 -25 52 0 105 6 130 15 55 19 130 20 130 1 0 -41 311 -31 369 12 15 10 33 38 41 60 18 52 46 59 36 10 -4 -18 -10 -48 -13 -65 l-6 -33 67 0 c36 0 66 2 66 4 0 7 49 242 65 314 15 65 19 72 41 72 14 0 24 -6 24 -14 0 -14 -68 -341 -75 -363 -3 -10 39 -13 189 -13 215 0 199 -5 211 74 l7 46 -127 0 c-127 0 -127 0 -121 23 3 12 6 28 6 35 0 9 29 12 109 12 61 0 112 3 114 8 3 4 8 28 12 55 l7 47 -109 0 -110 0 5 30 4 30 123 0 c136 0 125 -5 140 68 l7 32 -186 0 c-117 0 -186 -4 -186 -10 0 -5 18 -10 41 -10 28 0 39 -4 37 -12 -7 -20 -345 -24 -367 -4 -28 25 -93 36 -217 36 l-121 0 -17 -82 c-9 -46 -16 -86 -16 -90 0 -5 20 -8 45 -8 25 0 45 -4 45 -10 0 -6 -65 -10 -175 -10 -110 0 -175 -4 -175 -10 0 -5 18 -10 40 -10 48 0 51 -14 17 -75 -44 -78 -139 -93 -167 -25 -28 67 31 198 97 215 38 9 80 -12 92 -46 10 -28 12 -29 75 -29 62 0 66 1 66 23 0 43 -43 110 -84 131 -50 25 -133 32 -203 16 -43 -9 -65 -22 -99 -56 -51 -50 -54 -64 -18 -64 21 0 24 -3 16 -13 -9 -10 -43 -13 -139 -10 -133 3 -183 -2 -183 -18 0 -5 19 -9 43 -9 31 0 38 -3 27 -10 -8 -5 -39 -10 -68 -10 -46 0 -53 2 -48 18 2 9 7 32 11 50 6 30 9 32 49 32 23 0 51 -7 62 -15 12 -9 44 -14 93 -15 l74 0 -7 33 c-15 74 -79 97 -277 97 l-105 0 -23 -122z m1379 48 c0 -6 -40 -176 -46 -198 -4 -15 1 -18 30 -18 20 0 36 -4 36 -10 0 -6 -67 -10 -180 -10 -113 0 -180 -4 -180 -10 0 -5 26 -10 57 -10 74 0 58 -21 -22 -28 -61 -5 -63 -2 -49 67 6 30 8 31 58 31 30 0 60 -6 72 -15 11 -9 42 -14 77 -15 64 0 71 10 37 53 l-21 26 25 16 c28 18 51 76 43 106 -4 16 0 19 29 19 19 0 34 -2 34 -4z m-205 -61 c0 -30 0 -30 -64 -33 -55 -3 -63 -1 -57 13 3 9 6 25 6 36 0 18 6 20 58 17 56 -3 57 -3 57 -33z m-282 -173 c-10 -54 -11 -78 -4 -80 6 -2 9 -8 5 -13 -7 -12 -134 -12 -134 1 0 6 12 10 28 10 34 0 67 45 83 117 8 33 16 50 24 47 10 -4 9 -22 -2 -82z"></path><path d="M4440 4490 c0 -6 28 -10 65 -10 37 0 65 4 65 10 0 6 -28 10 -65 10 -37 0 -65 -4 -65 -10z"></path><path d="M1512 4290 c-43 -10 -94 -46 -118 -84 -12 -17 -76 -125 -144 -241 -588 -1002 -590 -1006 -590 -1063 0 -18 7 -48 15 -68 34 -82 190 -99 273 -29 16 13 62 82 103 154 l74 131 242 0 c222 0 242 -1 247 -17 2 -10 10 -58 16 -108 16 -120 39 -168 91 -189 58 -23 108 -20 170 12 68 34 110 91 116 159 3 30 -17 188 -51 413 -31 201 -73 471 -92 600 -36 235 -46 271 -80 302 -39 34 -183 49 -272 28z m43 -686 c14 -120 25 -222 25 -226 0 -5 -68 -8 -151 -8 -140 0 -151 1 -144 18 3 9 46 89 94 177 49 88 101 184 115 213 15 30 29 52 31 50 3 -2 16 -103 30 -224z"></path><path d="M5870 4261 c-72 -23 -125 -70 -149 -133 -6 -15 -40 -171 -76 -345 -36 -175 -91 -436 -121 -580 -30 -145 -54 -280 -54 -300 0 -43 28 -94 64 -118 13 -9 49 -19 78 -22 104 -10 196 53 230 157 8 25 30 122 48 216 l34 172 235 5 c199 4 246 7 301 24 228 70 383 236 426 458 18 90 13 194 -12 253 -39 94 -98 149 -209 193 -59 23 -68 24 -415 26 -195 1 -366 -2 -380 -6z m545 -302 c22 -6 52 -23 68 -37 23 -22 27 -34 27 -77 0 -74 -41 -152 -100 -187 -60 -37 -127 -48 -287 -48 l-135 0 6 26 c9 36 66 317 66 327 0 11 310 8 355 -4z"></path><path d="M11200 4232 c-86 -38 -120 -146 -71 -225 41 -67 155 -87 220 -40 61 45 79 151 34 211 -37 50 -130 78 -183 54z m95 -36 c43 -18 68 -56 68 -106 0 -78 -65 -129 -137 -109 -97 27 -100 190 -4 218 18 5 34 10 36 10 1 1 18 -5 37 -13z"></path><path d="M11200 4090 c0 -64 3 -80 15 -80 10 0 15 10 15 29 0 43 14 45 36 6 10 -20 26 -35 36 -35 22 0 22 3 3 40 -9 17 -11 30 -6 30 6 0 15 9 21 21 9 16 8 26 -5 45 -13 20 -24 24 -65 24 l-50 0 0 -80z m85 41 c7 -12 -25 -30 -42 -24 -7 3 -13 11 -13 19 0 16 45 20 55 5z"></path><path d="M4805 3925 c-235 -43 -420 -197 -505 -418 -17 -42 -37 -109 -45 -148 -17 -80 -19 -233 -5 -297 47 -202 230 -313 492 -298 254 14 466 158 578 391 67 140 84 208 84 340 1 118 -15 185 -59 255 -97 150 -307 219 -540 175z m204 -260 c91 -47 120 -152 85 -308 -35 -156 -107 -263 -213 -314 -47 -24 -68 -28 -136 -28 -85 1 -122 14 -162 57 -33 35 -43 72 -43 156 0 134 44 266 116 350 35 42 120 92 174 103 49 11 145 2 179 -16z"></path><path d="M9445 3926 c-252 -49 -398 -199 -399 -411 -1 -107 38 -167 142 -219 18 -10 107 -37 197 -61 90 -24 173 -48 184 -55 28 -15 36 -52 18 -86 -33 -65 -97 -97 -192 -98 -96 -1 -139 22 -183 98 -40 68 -70 89 -127 89 -92 0 -150 -71 -143 -174 7 -103 83 -179 225 -225 79 -26 289 -26 383 0 207 57 337 202 348 388 6 98 -13 152 -70 203 -56 51 -100 69 -274 110 -210 50 -238 71 -194 142 29 49 73 67 160 67 88 0 126 -16 166 -71 44 -61 75 -83 117 -83 51 0 98 21 130 59 90 108 -4 256 -202 317 -69 21 -205 26 -286 10z"></path><path d="M10505 3933 c-161 -22 -314 -108 -380 -213 -59 -95 -75 -232 -36 -312 41 -85 91 -112 322 -173 179 -48 209 -63 209 -107 0 -55 -68 -112 -153 -129 -99 -18 -180 11 -222 80 -11 18 -34 49 -51 69 -28 32 -36 36 -83 36 -85 0 -151 -67 -151 -154 0 -145 145 -251 366 -267 340 -24 597 164 597 437 0 75 -22 126 -75 177 -47 45 -104 68 -273 108 -207 50 -235 68 -200 135 33 63 135 94 234 70 47 -11 96 -50 127 -102 32 -52 113 -62 179 -23 98 57 100 173 5 259 -97 87 -260 130 -415 109z"></path><path d="M2427 3910 c-96 -12 -144 -62 -170 -177 -8 -38 -50 -238 -93 -445 -87 -423 -88 -433 -25 -475 34 -23 36 -23 385 -22 245 0 361 4 385 12 42 15 71 52 80 103 10 53 1 83 -32 108 -27 20 -43 21 -287 24 l-259 3 5 27 c3 15 13 61 23 102 l17 75 226 2 c244 2 270 7 303 57 20 30 30 87 21 120 -13 52 -50 60 -283 64 -164 3 -213 7 -213 17 0 7 7 44 16 83 l16 70 256 4 c237 3 260 5 292 23 45 27 71 73 73 129 3 72 -20 87 -140 97 -121 10 -517 9 -596 -1z"></path><path d="M3437 3909 c-67 -10 -108 -37 -133 -89 -15 -29 -55 -203 -114 -489 -99 -481 -100 -490 -49 -537 31 -28 147 -27 185 2 59 44 66 63 124 347 l11 57 137 0 c155 0 177 -7 187 -64 4 -18 1 -69 -6 -112 -22 -143 -8 -208 51 -239 43 -22 118 -19 164 8 57 32 76 75 76 171 0 44 5 117 12 162 13 93 4 143 -33 183 -21 22 -21 24 -4 34 45 25 109 96 138 152 35 70 48 186 27 250 -32 98 -125 152 -284 166 -115 11 -417 9 -489 -2z m367 -235 c114 -11 139 -55 91 -158 -29 -61 -76 -76 -244 -76 -112 0 -142 3 -138 13 2 7 10 39 16 72 7 33 16 81 22 106 l10 46 86 2 c48 1 118 -1 157 -5z"></path><path d="M7190 3915 c-8 -2 -32 -6 -52 -10 -43 -7 -92 -44 -114 -87 -14 -27 -36 -128 -155 -705 -21 -105 -39 -211 -39 -235 1 -71 44 -108 125 -108 73 0 129 39 158 110 8 19 27 99 43 178 l29 142 142 0 c132 0 145 -2 164 -21 23 -23 23 -50 3 -245 -11 -106 36 -164 130 -164 57 0 103 18 136 54 22 24 25 39 31 134 4 59 10 150 14 202 7 92 6 96 -19 134 l-27 38 23 16 c116 78 189 248 159 370 -29 116 -118 176 -282 192 -87 9 -434 12 -469 5z m365 -245 c68 -11 85 -27 85 -80 0 -50 -30 -101 -76 -127 -35 -21 -53 -23 -181 -23 -106 0 -143 3 -143 12 0 29 44 214 52 219 15 10 201 10 263 -1z"></path><path d="M8300 3915 c-8 -2 -32 -6 -52 -10 -42 -7 -92 -44 -112 -84 -8 -14 -56 -226 -106 -471 -89 -424 -92 -446 -79 -485 26 -74 33 -75 432 -75 376 0 394 2 434 54 28 34 38 99 23 135 -21 52 -42 56 -321 59 l-256 3 20 97 c12 53 26 100 31 104 6 4 110 8 231 8 156 0 227 4 245 13 62 31 92 138 53 186 -27 32 -110 42 -308 39 -133 -2 -175 0 -175 9 0 7 7 46 16 87 l17 74 256 4 c234 3 259 5 290 23 47 28 70 62 77 116 9 62 -21 98 -92 110 -46 7 -591 11 -624 4z"></path><path d="M835 2456 c-123 -39 -209 -144 -236 -289 -24 -131 20 -221 124 -252 93 -27 187 -11 265 45 66 47 93 118 53 140 -33 17 -49 12 -106 -40 -50 -45 -60 -50 -103 -50 -60 0 -88 20 -102 71 -29 107 45 252 140 276 58 15 91 3 123 -45 35 -52 73 -57 107 -15 29 37 20 78 -24 120 -55 51 -152 67 -241 39z"></path><path d="M1755 2456 c-43 -19 -73 -56 -83 -101 -6 -33 -12 -41 -34 -43 -33 -4 -50 -24 -46 -54 2 -15 11 -24 26 -26 27 -4 27 -3 -3 -152 -14 -68 -25 -131 -25 -141 0 -24 35 -42 66 -35 31 8 48 43 68 146 38 190 35 180 65 180 39 0 64 21 59 51 -2 19 -10 25 -36 27 -31 3 -33 6 -27 30 8 33 8 33 36 34 33 2 59 26 59 54 0 42 -64 57 -125 30z"></path><path d="M2035 2461 c-39 -17 -74 -60 -86 -105 -9 -38 -15 -46 -34 -46 -25 0 -55 -24 -55 -44 0 -18 21 -36 42 -36 22 0 23 11 -10 -150 -16 -74 -27 -141 -24 -148 14 -42 97 -30 109 16 3 15 18 83 33 152 l26 124 32 7 c77 16 86 79 11 79 -13 0 -19 7 -19 24 0 27 24 51 44 43 21 -8 56 21 56 48 0 14 -8 29 -19 35 -23 12 -77 12 -106 1z"></path><path d="M3425 2460 c-12 -4 -26 -14 -33 -22 -19 -24 -112 -489 -101 -509 24 -46 89 -26 107 33 6 18 23 95 38 170 15 76 29 136 31 135 1 -2 9 -64 18 -138 23 -202 24 -209 49 -220 47 -22 66 0 161 179 49 94 91 169 93 167 2 -2 -10 -69 -27 -149 -37 -172 -37 -182 -11 -196 31 -17 70 -1 86 34 21 46 106 467 99 493 -10 40 -114 43 -148 5 -8 -9 -56 -95 -105 -191 -104 -201 -92 -205 -116 44 -12 119 -19 152 -32 162 -20 14 -78 16 -109 3z"></path><path d="M4522 2458 c-13 -6 -26 -26 -32 -47 -25 -88 -97 -464 -93 -482 7 -27 48 -35 77 -15 25 16 27 20 45 91 6 22 20 46 31 53 18 11 23 6 60 -67 42 -84 63 -101 102 -80 51 27 50 60 -3 157 l-41 75 61 57 c63 59 72 78 45 104 -27 28 -51 18 -131 -53 -43 -39 -79 -66 -81 -61 -2 5 6 52 17 104 26 121 27 152 2 166 -24 12 -29 12 -59 -2z"></path><path d="M1277 2306 c-55 -20 -103 -61 -134 -114 -24 -41 -28 -57 -28 -129 0 -76 2 -84 29 -112 59 -62 201 -63 279 -3 97 74 135 231 76 313 -37 53 -141 74 -222 45z m117 -98 c36 -51 4 -173 -53 -202 -55 -29 -93 -20 -111 28 -18 49 6 133 52 176 31 28 92 27 112 -2z"></path><path d="M2288 2305 c-63 -23 -106 -64 -138 -128 -86 -173 11 -304 198 -267 100 20 167 83 132 125 -18 22 -40 19 -85 -12 -52 -35 -120 -37 -147 -3 -10 13 -18 33 -16 44 3 20 11 21 146 26 161 6 162 6 162 80 0 51 -25 100 -65 126 -34 22 -140 28 -187 9z m105 -76 c27 -14 37 -28 37 -51 0 -16 -11 -18 -90 -18 l-90 0 17 26 c16 25 63 53 91 54 7 0 23 -5 35 -11z"></path><path d="M2745 2304 c-163 -58 -229 -297 -103 -374 46 -27 113 -33 181 -15 65 17 101 39 116 72 26 55 -20 75 -84 37 -85 -49 -165 -29 -165 42 l0 24 140 0 c138 0 140 0 156 25 20 31 15 102 -11 141 -36 56 -144 79 -230 48z m119 -85 c14 -11 26 -29 26 -40 0 -17 -8 -19 -91 -19 l-91 0 14 23 c16 24 73 57 99 57 9 0 28 -9 43 -21z"></path><path d="M4109 2304 c-86 -26 -137 -98 -89 -124 17 -9 31 -5 75 20 62 35 120 38 139 7 16 -26 -24 -57 -73 -57 -61 0 -154 -29 -184 -57 -51 -49 -55 -122 -10 -165 36 -34 124 -31 187 6 44 26 46 26 46 6 0 -27 45 -45 77 -31 28 13 24 -1 58 184 l28 149 -20 26 c-37 50 -139 66 -234 36z m89 -272 c-13 -25 -62 -52 -96 -52 -31 0 -55 24 -48 47 8 24 41 40 106 51 51 9 61 -3 38 -46z"></path><path d="M4975 2304 c-97 -34 -168 -136 -169 -243 -1 -89 47 -143 140 -157 48 -7 153 17 189 43 30 22 46 64 33 86 -13 24 -28 21 -94 -14 -43 -22 -67 -29 -88 -25 -41 9 -66 34 -66 68 l0 28 139 0 c156 0 161 2 168 73 12 116 -118 189 -252 141z m119 -85 c14 -11 26 -29 26 -40 0 -17 -8 -19 -90 -19 -84 0 -90 1 -81 18 31 59 98 78 145 41z"></path><path d="M5346 2305 c-8 -8 -17 -23 -20 -33 -12 -40 -66 -307 -66 -328 0 -29 31 -47 65 -38 33 8 40 24 65 131 11 48 26 101 32 117 12 30 59 56 102 56 45 0 72 63 40 94 -24 25 -60 19 -99 -15 -30 -27 -35 -28 -35 -12 0 40 -53 58 -84 28z"></path></g></svg> 