<?xml version="1.0" encoding="UTF-8" standalone="no"?> <svg xmlns="http://www.w3.org/2000/svg" version="1.0" width="1000.000000pt" height="1000.000000pt" viewBox="0 0 1000.000000 1000.000000" preserveAspectRatio="xMidYMid meet"><g transform="translate(0.000000,1000.000000) scale(0.100000,-0.100000)" fill="#000000" stroke="none"><path d="M4687 7595 c-113 -16 -188 -38 -210 -63 -22 -25 -115 -307 -123 -372 l-6 -55 -67 -27 c-179 -74 -337 -193 -385 -290 -71 -142 2 -274 208 -373 83 -40 123 -54 244 -85 41 -11 42 -12 42 -53 0 -90 28 -226 59 -294 42 -89 91 -153 225 -291 172 -178 306 -261 376 -232 16 7 32 21 36 33 13 40 6 257 -9 280 -12 18 -12 27 1 68 18 56 12 76 -25 85 -50 12 -57 24 -30 53 50 53 73 130 45 148 -7 4 -22 8 -33 8 -18 0 -20 8 -23 71 l-3 71 105 6 c461 29 947 196 1119 386 109 121 112 231 10 341 -74 81 -253 168 -398 196 -19 3 -38 11 -41 16 -4 6 -13 47 -21 92 -31 178 -59 236 -131 269 -42 19 -61 21 -172 17 -173 -5 -347 -4 -535 3 -114 5 -188 2 -258 -8z m855 -54 c74 -10 119 -35 143 -81 l14 -28 -67 34 c-74 38 -156 53 -292 55 -99 1 -94 6 16 18 108 11 110 11 186 2z m278 -653 c0 -40 3 -83 6 -95 5 -18 -3 -25 -59 -52 -237 -113 -579 -166 -925 -143 -207 14 -332 39 -422 84 l-65 33 -3 102 -3 102 43 -19 c146 -64 373 -102 618 -103 221 -1 402 32 660 121 159 55 150 56 150 -30z"></path><path d="M4144 4986 c-113 -36 -214 -149 -264 -296 -31 -91 -39 -289 -16 -380 53 -212 186 -338 366 -348 92 -5 167 9 246 48 95 46 93 39 39 114 -26 37 -53 65 -59 62 -134 -59 -210 -71 -279 -43 -46 20 -101 85 -128 153 -21 51 -24 75 -23 184 0 141 17 203 75 273 69 84 184 101 296 43 29 -14 57 -26 62 -26 6 0 31 30 57 66 52 73 54 67 -28 109 -100 52 -251 70 -344 41z"></path><path d="M1340 4480 l0 -511 233 3 c217 3 236 5 292 27 85 34 158 110 181 186 27 95 7 183 -61 264 l-27 31 37 42 c72 84 82 203 27 302 -34 61 -90 106 -169 137 -53 21 -77 23 -285 27 l-228 4 0 -512z m478 311 c75 -39 91 -120 34 -173 -49 -46 -71 -52 -209 -56 l-133 -4 0 132 0 132 133 -4 c112 -4 138 -7 175 -27z m-8 -420 c73 -38 95 -106 55 -168 -31 -46 -70 -57 -217 -61 l-138 -4 0 126 0 126 133 0 c110 0 138 -3 167 -19z"></path><path d="M2270 4480 l0 -510 245 0 244 0 21 68 c11 37 23 75 26 85 5 16 -8 17 -180 17 l-186 0 0 425 0 425 -85 0 -85 0 0 -510z"></path><path d="M3101 4520 c-73 -258 -135 -477 -138 -488 -4 -16 7 -22 73 -40 43 -11 80 -19 84 -17 4 2 22 58 40 125 l33 120 123 0 123 0 20 -67 c10 -38 27 -94 35 -125 9 -32 19 -58 22 -58 24 0 154 45 154 53 0 6 -57 211 -126 456 -70 245 -131 461 -136 479 l-9 32 -82 0 -83 0 -133 -470z m255 -3 c17 -62 29 -115 27 -119 -7 -13 -133 -9 -133 4 0 23 64 238 69 232 3 -3 20 -55 37 -117z"></path><path d="M4780 4480 l0 -510 85 0 85 0 0 234 0 234 34 26 35 26 161 -255 c89 -140 165 -257 169 -259 7 -5 141 76 141 86 0 3 -72 120 -161 259 -89 139 -163 258 -166 265 -2 7 65 65 157 134 88 68 163 127 166 131 3 5 -16 37 -42 71 -26 35 -49 65 -50 66 -1 2 -101 -71 -221 -163 l-218 -167 -3 166 -2 166 -85 0 -85 0 0 -510z"></path><path d="M6160 4527 l0 -463 83 -47 82 -46 3 209 2 210 185 0 185 0 0 -210 0 -210 90 0 90 0 0 510 0 510 -90 0 -90 0 0 -215 0 -215 -185 0 -185 0 0 215 0 215 -85 0 -85 0 0 -463z"></path><path d="M7206 4504 c-76 -267 -136 -487 -134 -489 8 -7 152 -44 158 -40 3 2 22 58 40 125 l33 120 123 0 123 0 16 -57 c42 -149 56 -193 61 -193 23 0 154 45 154 53 0 8 -158 573 -256 915 l-15 52 -83 0 -82 0 -138 -486z m259 12 c18 -63 30 -118 27 -121 -3 -3 -34 -5 -69 -5 -44 0 -63 4 -63 13 0 22 62 238 68 233 2 -3 19 -57 37 -120z"></path><path d="M7930 4905 l0 -85 140 0 140 0 0 -425 0 -425 85 0 85 0 0 425 0 425 135 0 135 0 0 85 0 85 -360 0 -360 0 0 -85z"></path><path d="M4040 3538 c-69 -47 -103 -147 -82 -247 27 -126 128 -182 240 -131 l43 19 -17 26 c-13 20 -23 25 -38 20 -58 -17 -87 -17 -112 0 -68 45 -72 190 -6 249 21 18 63 19 117 2 14 -4 25 1 38 19 17 24 17 25 -9 42 -15 9 -52 19 -83 21 -46 3 -62 0 -91 -20z"></path><path d="M4383 3540 c-52 -31 -63 -64 -63 -191 0 -94 3 -117 20 -144 27 -44 81 -69 136 -62 59 6 92 30 116 84 17 38 20 62 16 143 -4 108 -16 137 -71 170 -42 26 -112 26 -154 0z m137 -77 c19 -25 21 -38 18 -121 -3 -84 -5 -96 -27 -113 -30 -25 -76 -24 -101 1 -17 17 -20 33 -20 124 0 97 2 106 22 120 36 26 83 20 108 -11z"></path><path d="M4692 3353 l3 -208 33 -3 32 -3 0 90 0 91 75 0 75 0 0 35 0 35 -75 0 -75 0 0 50 0 50 110 0 110 0 0 35 0 35 -145 0 -145 0 2 -207z"></path><path d="M5060 3349 l0 -210 33 3 32 3 3 88 3 87 75 0 75 0 -3 33 -3 32 -72 3 -73 3 0 49 0 50 110 0 110 0 0 35 0 35 -145 0 -145 0 0 -211z"></path><path d="M5424 3547 c-2 -7 -3 -100 -2 -207 l3 -195 143 -3 142 -3 0 35 0 35 -107 3 -108 3 0 50 0 50 73 3 72 3 0 34 0 35 -76 0 -75 0 3 48 3 47 108 3 107 3 0 34 0 35 -140 0 c-105 0 -142 -3 -146 -13z"></path><path d="M5802 3353 l3 -208 143 -3 142 -3 0 36 0 35 -110 0 -110 0 0 55 0 55 76 0 75 0 -3 33 -3 32 -72 3 -73 3 0 49 0 50 110 0 110 0 0 35 0 35 -145 0 -145 0 2 -207z"></path></g></svg> 