<?xml version="1.0" encoding="UTF-8"?> <svg xmlns="http://www.w3.org/2000/svg" xmlns:xlink="http://www.w3.org/1999/xlink" width="1300" zoomAndPan="magnify" viewBox="0 0 974.88 374.999991" height="500" preserveAspectRatio="xMidYMid meet" version="1.0"><path fill="#000000" d="M 130.574219 113.679688 L 129.285156 114.910156 L 129.285156 243.480469 L 130.632812 244.710938 C 132.5625 246.527344 135.316406 246.410156 136.835938 244.476562 C 137.890625 243.128906 138.066406 242.074219 138.066406 237.390625 L 138.066406 231.828125 L 141.929688 235.34375 C 149.484375 242.308594 159.261719 246 169.976562 246 C 188.886719 246 204.34375 234.230469 209.261719 216.082031 C 210.667969 210.988281 210.667969 200.214844 209.261719 195.0625 C 205.457031 180.601562 194.566406 169.710938 180.222656 165.964844 C 175.070312 164.675781 164.765625 164.617188 159.730469 165.964844 C 153.347656 167.660156 146.613281 171.289062 142.105469 175.566406 L 138.066406 179.371094 L 138.066406 147.519531 C 138.066406 116.078125 138.066406 115.554688 136.835938 114.03125 C 135.316406 112.097656 132.445312 111.980469 130.574219 113.679688 Z M 177.527344 174.042969 C 182.503906 174.980469 187.65625 177.90625 191.988281 182.121094 C 204.753906 194.710938 204.988281 215.789062 192.515625 228.375 C 185.667969 235.285156 177.644531 238.269531 167.691406 237.625 C 158.675781 237.039062 152.527344 234.171875 146.554688 227.730469 C 133.324219 213.503906 135.84375 189.265625 151.53125 178.726562 C 159.320312 173.574219 167.457031 172.109375 177.527344 174.042969 Z M 177.527344 174.042969 " fill-opacity="1" fill-rule="nonzero"></path><path fill="#000000" d="M 670.328125 114.03125 C 667.988281 117.015625 665.9375 121.992188 665.703125 125.449219 C 665.410156 129.546875 666.171875 131.886719 669.804688 138.269531 C 673.199219 144.242188 673.550781 147.34375 671.148438 150.566406 C 669.453125 152.847656 669.277344 154.78125 670.621094 156.066406 C 672.847656 158.351562 676.300781 156.359375 678.46875 151.558594 C 680.632812 146.816406 679.582031 141.019531 675.25 133.703125 C 671.96875 128.257812 671.851562 125.332031 674.664062 120.003906 L 676.828125 115.84375 L 675.65625 114.324219 C 674.078125 112.15625 671.910156 112.039062 670.328125 114.03125 Z M 670.328125 114.03125 " fill-opacity="1" fill-rule="nonzero"></path><path fill="#000000" d="M 689.828125 113.972656 C 687.601562 116.195312 685.320312 121.699219 685.027344 125.449219 C 684.734375 129.546875 685.492188 131.945312 688.890625 137.859375 C 692.34375 143.773438 692.753906 147.226562 690.527344 150.449219 C 688.773438 152.964844 688.597656 154.78125 689.945312 156.066406 C 692.285156 158.46875 696.148438 155.949219 698.140625 150.855469 C 699.78125 146.523438 699.019531 142.660156 695.15625 135.050781 C 691.289062 127.378906 691.054688 125.449219 693.691406 120.53125 C 695.679688 116.722656 695.914062 114.851562 694.394531 113.503906 C 692.871094 112.097656 691.523438 112.273438 689.828125 113.972656 Z M 689.828125 113.972656 " fill-opacity="1" fill-rule="nonzero"></path><path fill="#000000" d="M 811.199219 152.964844 C 810.671875 153.257812 809.792969 154.371094 809.265625 155.367188 C 807.273438 159.230469 810.027344 163.738281 814.417969 163.738281 C 817.519531 163.738281 820.15625 160.984375 820.15625 157.824219 C 820.15625 154.839844 817.519531 152.320312 814.476562 152.320312 C 813.246094 152.320312 811.78125 152.613281 811.199219 152.964844 Z M 816.117188 153.492188 C 816.40625 153.492188 817.167969 154.019531 817.8125 154.664062 C 820.566406 157.414062 818.222656 162.859375 814.300781 162.859375 C 810.261719 162.859375 808.035156 157.472656 810.964844 154.839844 C 812.484375 153.433594 813.714844 152.90625 814.769531 153.257812 C 815.238281 153.375 815.824219 153.492188 816.117188 153.492188 Z M 816.117188 153.492188 " fill-opacity="1" fill-rule="nonzero"></path><path fill="#000000" d="M 812.015625 158 C 812.074219 159.875 812.25 160.8125 812.367188 160.050781 C 812.71875 158.410156 813.949219 158.410156 815.121094 160.050781 C 815.648438 160.753906 816.234375 161.160156 816.40625 160.929688 C 816.640625 160.695312 816.464844 160.167969 816.117188 159.699219 C 815.53125 159.054688 815.589844 158.585938 816.175781 157.589844 C 816.816406 156.535156 816.757812 156.242188 815.824219 155.484375 C 815.179688 155.015625 814.066406 154.664062 813.304688 154.664062 C 812.015625 154.664062 811.957031 154.898438 812.015625 158 Z M 815.472656 156.710938 C 815.472656 157.238281 814.945312 157.589844 814.007812 157.589844 C 813.070312 157.589844 812.542969 157.238281 812.542969 156.710938 C 812.542969 156.183594 813.070312 155.835938 814.007812 155.835938 C 814.945312 155.835938 815.472656 156.183594 815.472656 156.710938 Z M 815.472656 156.710938 " fill-opacity="1" fill-rule="nonzero"></path><path fill="#000000" d="M 263.945312 165.378906 C 258.617188 166.546875 254.050781 169.242188 249.542969 173.691406 L 245.328125 177.789062 L 245.09375 172.988281 C 244.917969 169.359375 244.566406 167.835938 243.746094 166.957031 C 242.457031 165.554688 239.589844 165.4375 237.714844 166.722656 L 236.429688 167.601562 L 236.429688 205.25 C 236.429688 240.378906 236.488281 242.953125 237.480469 243.773438 C 240.058594 246 243.570312 245.296875 244.566406 242.367188 C 244.976562 241.199219 245.210938 232.003906 245.210938 216.082031 C 245.210938 192.71875 245.269531 191.429688 246.441406 188.328125 C 248.839844 181.828125 254.34375 176.675781 261.019531 174.511719 C 264.0625 173.515625 266.171875 173.28125 271.792969 173.339844 C 279.460938 173.398438 280.925781 172.871094 280.925781 170.0625 C 280.925781 167.894531 279.988281 166.546875 277.878906 165.847656 C 274.894531 164.792969 267.515625 164.558594 263.945312 165.378906 Z M 263.945312 165.378906 " fill-opacity="1" fill-rule="nonzero"></path><path fill="#000000" d="M 595.972656 165.496094 C 587.074219 167.132812 579.695312 172.402344 577.238281 178.84375 C 575.65625 183.234375 575.539062 190.203125 577.121094 193.597656 C 580.632812 201.265625 588.832031 205.777344 604.464844 208.527344 C 613.128906 210.050781 617.753906 211.628906 621.207031 214.148438 C 625.011719 216.839844 626.535156 220.0625 626.242188 224.277344 C 625.65625 232.0625 619.042969 236.804688 607.625 237.625 C 596.851562 238.386719 587.542969 235.636719 581.6875 229.957031 C 578.46875 226.851562 576.359375 226.441406 574.371094 228.609375 C 572.4375 230.660156 572.730469 232.53125 575.480469 235.34375 C 584.617188 244.886719 602.238281 248.574219 616.816406 243.949219 C 628.117188 240.378906 634.5 233.234375 634.558594 223.984375 C 634.558594 218.246094 633.328125 214.96875 629.347656 210.753906 C 624.195312 205.132812 619.570312 203.316406 602.355469 200.039062 C 596.382812 198.867188 591.699219 197.285156 589.183594 195.589844 C 583.5625 191.722656 582.507812 184.113281 586.957031 179.195312 C 589.882812 175.976562 593.867188 174.101562 599.429688 173.28125 C 608.445312 171.992188 615.878906 174.335938 622.4375 180.367188 C 624.429688 182.238281 626.535156 183.9375 627.121094 184.113281 C 628.644531 184.699219 631.570312 183 631.980469 181.359375 C 632.507812 179.078125 631.746094 177.613281 628.117188 173.984375 C 620.503906 166.371094 608.5625 163.210938 595.972656 165.496094 Z M 595.972656 165.496094 " fill-opacity="1" fill-rule="nonzero"></path><path fill="#000000" d="M 761.898438 165.4375 C 747.90625 168.128906 736.605469 177.261719 731.804688 189.792969 C 727.179688 201.910156 728.175781 215.789062 734.5 226.675781 C 735.730469 228.785156 738.65625 232.355469 740.996094 234.699219 C 744.335938 238.035156 746.382812 239.5 750.660156 241.546875 C 762.777344 247.402344 775.777344 247.519531 787.367188 241.839844 C 791.289062 239.910156 793.28125 238.445312 796.910156 234.757812 L 801.417969 230.132812 L 801.417969 236.511719 C 801.417969 241.839844 801.59375 243.011719 802.472656 243.832031 C 804.582031 245.707031 808.445312 245.121094 809.5 242.777344 C 810.378906 240.90625 810.4375 206.300781 809.617188 200.039062 C 808.972656 194.886719 806.746094 188.328125 804.230469 184.054688 C 801.011719 178.550781 794.335938 172.34375 788.539062 169.417969 C 785.789062 168.070312 781.980469 166.546875 780.050781 166.078125 C 775.015625 164.792969 766.757812 164.5 761.898438 165.4375 Z M 776.417969 173.691406 C 787.367188 175.976562 796.675781 184.640625 799.839844 195.472656 C 803.351562 207.296875 800.191406 220.472656 791.933594 228.609375 C 781.980469 238.445312 767.695312 240.613281 754.816406 234.289062 C 749.488281 231.652344 744.335938 226.792969 741.582031 221.699219 C 737.894531 214.851562 736.664062 205.25 738.480469 197.519531 C 742.519531 180.542969 759.148438 170.003906 776.417969 173.691406 Z M 776.417969 173.691406 " fill-opacity="1" fill-rule="nonzero"></path><path fill="#000000" d="M 323.078125 166.078125 C 308.792969 170.003906 298.78125 181.476562 296.089844 197.050781 C 294.976562 203.609375 295.679688 213.679688 297.667969 219.59375 C 303.113281 235.871094 316.875 245.589844 334.496094 245.648438 C 338.066406 245.648438 342.109375 245.296875 343.570312 244.886719 C 352.296875 242.484375 360.726562 237.859375 362.25 234.640625 C 362.953125 233.175781 362.894531 232.824219 361.898438 231.421875 C 360.023438 228.902344 357.800781 229.136719 353.289062 232.179688 C 344.097656 238.445312 330.867188 239.441406 320.855469 234.523438 C 316.875 232.589844 311.019531 227.144531 308.617188 223.046875 C 306.804688 220.0625 304.34375 212.15625 304.34375 209.289062 L 304.34375 207.941406 L 335.667969 207.941406 C 366.230469 207.941406 366.992188 207.941406 368.160156 206.769531 C 370.738281 204.195312 369.097656 193.246094 364.882812 184.582031 C 360.726562 176.089844 353.992188 170.121094 344.976562 166.839844 C 340.410156 165.203125 327.996094 164.734375 323.078125 166.078125 Z M 336.957031 173.457031 C 349.71875 175.214844 358.382812 184.230469 360.785156 198.398438 L 361.136719 200.332031 L 304.34375 200.332031 L 304.695312 198.691406 C 306.570312 190.144531 309.027344 185.226562 313.769531 180.71875 C 317.75 176.910156 323.136719 174.160156 328.113281 173.457031 C 329.988281 173.164062 331.746094 172.929688 331.980469 172.871094 C 332.214844 172.871094 334.4375 173.105469 336.957031 173.457031 Z M 336.957031 173.457031 " fill-opacity="1" fill-rule="nonzero"></path><path fill="#000000" d="M 455.222656 166.488281 C 454.460938 167.25 451.886719 172.109375 449.542969 177.378906 C 447.144531 182.589844 445.035156 186.6875 444.800781 186.453125 C 444.625 186.160156 442.402344 181.652344 439.941406 176.324219 C 437.484375 171.054688 435.140625 166.488281 434.730469 166.253906 C 433.445312 165.4375 430.398438 165.789062 429.460938 166.839844 C 428.875 167.425781 428.46875 168.65625 428.46875 169.535156 C 428.46875 170.414062 431.160156 176.851562 434.4375 183.820312 C 437.71875 190.789062 440.351562 196.757812 440.351562 197.109375 C 440.351562 198.457031 424.71875 231.945312 424.308594 231.535156 C 423.957031 231.1875 412.367188 206.417969 406.511719 193.597656 C 399.660156 178.433594 394.859375 168.1875 394.15625 167.074219 C 392.402344 164.382812 386.898438 166.136719 386.898438 169.417969 C 386.898438 170.121094 389.355469 175.976562 392.402344 182.414062 C 397.496094 193.246094 415.292969 231.476562 419.15625 239.96875 C 421.089844 244.183594 422.964844 245.765625 425.363281 245.121094 C 426.300781 244.886719 427.296875 244.476562 427.648438 244.183594 C 428.058594 243.832031 432.097656 235.460938 436.722656 225.449219 C 441.289062 215.496094 445.269531 207.53125 445.503906 207.765625 C 445.738281 208.058594 449.542969 216.023438 453.933594 225.507812 C 458.328125 234.992188 462.484375 243.363281 463.128906 244.066406 C 465.46875 246.582031 468.804688 245.355469 470.679688 241.375 C 481.160156 219.066406 503.410156 170.179688 503.410156 169.417969 C 503.410156 166.664062 499.542969 164.441406 497.085938 165.730469 C 496.441406 166.078125 494.332031 169.945312 492.109375 174.6875 C 475.128906 211.863281 466.523438 230.894531 466.523438 231.363281 C 466.523438 233.410156 464.707031 230.015625 457.625 214.675781 L 449.660156 197.402344 L 455.75 184.113281 C 459.085938 176.792969 461.839844 170.121094 461.839844 169.242188 C 461.839844 167.484375 459.496094 165.203125 457.683594 165.203125 C 457.097656 165.203125 455.984375 165.789062 455.222656 166.488281 Z M 455.222656 166.488281 " fill-opacity="1" fill-rule="nonzero"></path><path fill="#000000" d="M 532.800781 166.722656 L 531.511719 167.601562 L 531.511719 205.25 C 531.511719 240.964844 531.570312 242.953125 532.566406 243.832031 C 534.03125 245.179688 537.542969 245.121094 538.714844 243.773438 C 539.589844 242.777344 539.707031 239.148438 539.707031 205.308594 C 539.765625 171.113281 539.648438 167.894531 538.773438 166.898438 C 537.542969 165.554688 534.613281 165.4375 532.800781 166.722656 Z M 532.800781 166.722656 " fill-opacity="1" fill-rule="nonzero"></path><path fill="#000000" d="M 669.101562 194.007812 C 669.101562 207.941406 669.394531 220.941406 669.6875 222.871094 C 671.03125 231.1875 676.945312 238.972656 684.734375 242.660156 C 688.363281 244.359375 689.300781 244.535156 695.503906 244.710938 C 702.0625 244.945312 702.355469 244.886719 703.292969 243.597656 C 704.582031 241.722656 704.464844 238.796875 703.058594 237.507812 C 702.121094 236.6875 700.484375 236.339844 696.089844 236.046875 C 687.308594 235.402344 683.09375 232.707031 679.699219 225.507812 L 678.175781 222.285156 L 678 199.277344 L 677.824219 176.324219 L 688.304688 176.324219 C 697.554688 176.324219 698.902344 176.207031 699.664062 175.273438 C 701.300781 173.457031 701.417969 171.933594 700.074219 170.296875 L 698.902344 168.714844 L 669.101562 168.714844 Z M 669.101562 194.007812 " fill-opacity="1" fill-rule="nonzero"></path></svg> 