<?xml version="1.0" encoding="UTF-8" standalone="no"?> <svg xmlns="http://www.w3.org/2000/svg" version="1.0" width="2600.000000pt" height="1000.000000pt" viewBox="0 0 2600.000000 1000.000000" preserveAspectRatio="xMidYMid meet"><g transform="translate(0.000000,1000.000000) scale(0.100000,-0.100000)" fill="#000000" stroke="none"><path d="M17770 7428 c0 -5 53 -77 118 -160 514 -661 730 -956 788 -1075 77 -160 72 -247 -25 -448 -66 -134 -73 -147 -594 -1035 -44 -74 -88 -151 -99 -170 -11 -19 -95 -161 -186 -315 -91 -154 -167 -283 -169 -287 -2 -5 86 -8 196 -8 111 0 201 4 201 9 0 4 65 118 143 252 79 134 240 408 357 609 117 201 280 479 363 619 216 367 232 409 225 601 -7 203 -32 249 -368 690 -388 509 -555 719 -577 725 -37 9 -373 3 -373 -7z"></path><path d="M20262 7427 c-12 -7 -81 -88 -154 -182 -483 -622 -673 -879 -718 -970 -83 -169 -90 -336 -21 -520 24 -63 15 -47 259 -463 109 -185 269 -458 356 -607 87 -148 221 -379 299 -512 l142 -243 197 0 197 0 -31 53 c-17 28 -69 117 -116 197 -46 80 -106 181 -132 225 -99 167 -510 867 -602 1025 -225 389 -267 495 -246 627 11 68 70 189 146 298 77 110 410 551 630 833 100 129 179 238 176 243 -8 14 -356 10 -382 -4z"></path><path d="M20866 7425 c-58 -20 -104 -71 -122 -132 -14 -48 -14 -58 0 -107 40 -137 209 -190 316 -99 65 54 89 156 55 235 -27 66 -110 119 -185 118 -14 -1 -42 -7 -64 -15z m121 -36 c130 -49 140 -230 15 -290 -140 -68 -280 90 -198 225 39 65 114 91 183 65z"></path><path d="M20862 7352 c-8 -2 -12 -37 -12 -108 l0 -104 25 0 c22 0 25 4 25 35 0 30 3 35 23 35 17 0 29 -10 42 -34 17 -32 47 -51 59 -39 3 3 -1 18 -9 34 -19 36 -19 53 0 69 20 16 19 74 -1 94 -8 9 -25 16 -37 17 -12 0 -40 1 -63 3 -22 1 -46 0 -52 -2z m112 -45 c13 -10 16 -20 12 -35 -6 -18 -15 -22 -47 -22 -36 0 -39 2 -39 28 0 16 3 32 7 35 11 11 48 8 67 -6z"></path><path d="M3570 7409 c-413 -39 -774 -204 -1067 -490 -261 -254 -410 -527 -484 -889 -30 -143 -33 -512 -5 -665 68 -384 217 -676 481 -941 258 -259 527 -395 925 -470 113 -21 485 -30 617 -15 389 46 726 190 994 424 85 74 209 207 209 223 -1 5 -58 52 -128 105 l-127 96 -122 -117 c-232 -224 -465 -347 -773 -405 -144 -28 -437 -26 -588 4 -300 58 -543 185 -751 391 -239 237 -370 514 -402 855 -50 541 173 1030 599 1316 177 118 337 185 548 230 156 33 438 34 601 1 144 -29 243 -62 369 -123 170 -83 374 -243 471 -370 22 -29 43 -47 51 -44 23 9 252 186 252 196 0 19 -159 196 -239 266 -372 325 -873 473 -1431 422z"></path><path d="M5707 7414 c-4 -4 -7 -790 -7 -1746 l0 -1738 175 0 175 0 0 820 0 820 884 0 c797 0 884 -2 890 -16 3 -9 6 -378 6 -820 l0 -804 175 0 175 0 -2 1743 -3 1742 -170 0 -170 0 -5 -750 -5 -750 -887 -3 -888 -2 -2 752 -3 753 -166 3 c-91 1 -168 -1 -172 -4z"></path><path d="M8677 7413 c-4 -3 -7 -789 -7 -1745 l0 -1738 995 0 995 0 -2 168 -3 167 -815 5 -815 5 -3 640 c-1 352 0 650 3 663 l5 22 815 0 815 0 -2 168 -3 167 -815 5 -815 5 0 565 0 565 828 3 827 2 -2 168 -3 167 -996 3 c-547 1 -999 -1 -1002 -5z"></path><path d="M15267 7413 c-4 -3 -7 -789 -7 -1745 l0 -1738 998 2 997 3 0 165 0 165 -818 3 -817 2 2 663 3 662 815 5 815 5 0 165 0 165 -818 3 -817 2 2 568 3 567 823 3 822 2 -2 168 -3 167 -996 3 c-547 1 -999 -1 -1002 -5z"></path><path d="M11300 5670 l0 -1740 170 0 170 0 0 1367 c0 1143 2 1365 13 1353 11 -12 102 -168 217 -375 12 -22 68 -121 125 -220 427 -751 381 -671 460 -810 91 -163 387 -683 462 -812 35 -62 68 -113 73 -113 6 0 109 174 183 308 10 18 71 126 136 240 65 114 167 293 226 397 59 105 133 235 165 290 31 55 69 123 85 150 15 28 53 95 85 150 32 55 114 199 182 320 69 121 159 279 200 352 42 73 78 129 82 126 3 -4 6 -618 6 -1365 l0 -1358 175 0 175 0 -2 1738 -3 1737 -157 3 -157 3 -117 -208 c-139 -247 -334 -591 -449 -793 -45 -80 -97 -172 -115 -205 -18 -33 -50 -89 -70 -125 -45 -78 -226 -397 -454 -802 -93 -164 -172 -298 -177 -298 -8 0 -34 44 -144 240 -32 58 -102 182 -156 275 -53 94 -109 193 -124 220 -24 43 -126 224 -280 495 -23 41 -55 98 -70 125 -80 143 -372 661 -501 885 -23 41 -56 100 -72 130 l-31 55 -155 3 -156 3 0 -1741z"></path><path d="M21342 2798 l3 -353 35 0 35 0 3 353 2 352 -40 0 -40 0 2 -352z"></path><path d="M23440 3130 c0 -5 13 -10 29 -10 37 0 41 -12 41 -112 0 -59 3 -79 13 -76 8 3 14 35 17 94 5 88 5 89 33 92 15 2 27 8 27 13 0 5 -36 9 -80 9 -47 0 -80 -4 -80 -10z"></path><path d="M23637 3133 c-4 -3 -7 -51 -7 -105 0 -80 3 -98 15 -98 12 0 15 14 15 63 0 35 3 67 6 70 4 4 17 -23 30 -59 12 -37 25 -68 28 -71 14 -14 36 11 51 59 26 78 30 79 35 9 3 -39 10 -66 18 -69 9 -3 12 22 12 103 0 103 -1 106 -22 103 -17 -2 -27 -19 -48 -81 -31 -89 -35 -88 -69 16 -17 49 -27 67 -40 67 -10 0 -21 -3 -24 -7z"></path><path d="M13002 2773 l3 -328 35 0 35 0 5 125 5 125 130 5 c114 5 136 9 175 30 80 45 114 131 90 230 -14 58 -67 115 -119 130 -20 5 -109 10 -199 10 l-162 0 2 -327z m348 234 c65 -32 76 -136 21 -191 l-31 -31 -128 0 -127 0 -3 104 c-1 58 0 111 2 118 7 18 230 18 266 0z"></path><path d="M15222 2773 l3 -328 160 1 c139 1 166 3 206 21 112 50 169 151 169 300 0 110 -22 181 -73 239 -70 80 -97 88 -295 92 l-172 4 2 -329z m345 228 c78 -36 120 -137 110 -261 -13 -161 -93 -224 -277 -218 l-95 3 -3 248 -2 247 112 0 c89 0 122 -4 155 -19z"></path><path d="M16890 3056 l0 -46 41 0 40 0 -3 43 c-3 41 -4 42 -40 45 l-38 3 0 -45z"></path><path d="M18578 3095 c-10 -10 -10 -628 1 -643 5 -8 22 -12 42 -10 l34 3 3 128 3 127 107 0 c59 0 124 4 145 9 93 22 147 93 147 195 0 73 -27 127 -82 163 -41 27 -45 28 -217 31 -97 2 -179 0 -183 -3z m352 -92 c34 -20 50 -52 50 -101 -1 -94 -48 -122 -207 -122 l-113 0 0 120 0 120 121 0 c95 0 127 -4 149 -17z"></path><path d="M20802 2773 l3 -328 35 0 35 0 3 153 3 152 164 0 165 0 0 40 0 40 -165 0 -165 0 0 95 0 95 180 0 180 0 0 40 0 40 -220 0 -220 0 2 -327z"></path><path d="M14250 2938 c-19 -5 -47 -19 -62 -30 l-28 -19 0 20 c0 18 -6 21 -40 21 l-40 0 2 -242 3 -243 37 -3 36 -3 4 168 c3 145 6 172 22 196 22 33 49 49 96 57 33 5 35 7 35 45 0 45 -9 49 -65 33z"></path><path d="M14537 2935 c-84 -23 -141 -79 -171 -168 -20 -60 -20 -89 0 -156 29 -97 137 -181 235 -181 85 0 180 53 214 121 22 42 19 49 -24 49 -33 0 -43 -5 -61 -30 -32 -46 -74 -63 -137 -58 -77 7 -135 55 -149 126 l-6 32 206 0 c158 0 206 3 206 13 0 6 -7 36 -14 66 -28 103 -89 165 -188 189 -54 14 -49 14 -111 -3z m129 -86 c40 -19 84 -71 84 -98 0 -8 -45 -11 -150 -11 -143 0 -150 1 -150 20 0 25 71 97 102 103 49 9 73 6 114 -14z"></path><path d="M16045 2943 c-133 -29 -215 -128 -215 -259 0 -198 218 -317 388 -212 36 22 95 105 86 119 -3 5 -19 9 -37 9 -23 0 -42 -11 -75 -42 -42 -42 -44 -43 -110 -43 -55 0 -73 4 -97 23 -40 32 -65 71 -65 105 l0 27 200 0 200 0 0 23 c0 47 -30 124 -65 164 -51 60 -149 100 -210 86z m114 -100 c26 -20 71 -79 71 -94 0 -5 -70 -9 -156 -9 l-155 0 7 23 c29 92 157 136 233 80z"></path><path d="M16520 2936 c-81 -21 -130 -72 -130 -134 0 -77 47 -113 179 -138 112 -21 141 -36 141 -74 0 -57 -66 -90 -153 -76 -43 7 -97 48 -97 73 0 9 -14 13 -41 13 -41 0 -41 0 -35 -32 9 -47 36 -79 89 -107 185 -95 385 45 297 208 -15 29 -80 56 -168 70 -119 18 -150 43 -114 90 41 55 141 52 191 -4 24 -28 38 -35 66 -35 39 0 44 13 21 58 -24 46 -63 74 -123 88 -68 16 -65 16 -123 0z"></path><path d="M17255 2943 c-87 -19 -150 -66 -188 -137 -31 -61 -30 -174 3 -240 61 -121 208 -168 322 -104 21 12 38 25 38 30 0 4 5 8 10 8 18 0 11 -82 -11 -126 -49 -101 -185 -120 -270 -37 -30 28 -43 34 -70 31 -42 -4 -41 -25 0 -78 43 -53 113 -85 186 -85 112 1 188 47 231 140 23 48 24 58 24 318 l0 267 -35 0 c-32 0 -35 -2 -35 -30 0 -16 -3 -30 -6 -30 -3 0 -22 13 -42 29 -29 22 -118 56 -134 50 -2 -1 -12 -3 -23 -6z m74 -83 c133 -38 164 -240 49 -322 -26 -18 -46 -23 -95 -23 -55 0 -65 3 -94 30 -37 35 -68 98 -69 137 0 46 30 111 67 145 45 41 83 50 142 33z"></path><path d="M17817 2939 c-21 -5 -48 -16 -60 -24 -27 -19 -37 -19 -37 0 0 11 -11 15 -40 15 l-40 0 2 -242 3 -243 38 -3 37 -3 0 168 c0 151 2 171 20 201 42 68 138 79 195 22 l30 -30 5 -178 5 -177 35 0 35 0 3 150 c2 88 -1 172 -8 203 -16 71 -57 117 -123 137 -28 8 -53 15 -56 14 -3 -1 -23 -5 -44 -10z"></path><path d="M19818 2934 c-26 -8 -50 -19 -53 -24 -10 -15 -35 -12 -35 5 0 10 -11 15 -35 15 l-35 0 0 -246 0 -245 38 3 37 3 5 171 c4 154 7 174 25 194 26 29 68 50 100 50 23 0 25 3 25 45 0 50 -1 51 -72 29z"></path><path d="M20126 2939 c-208 -49 -267 -334 -95 -459 115 -83 299 -48 358 69 23 44 20 51 -23 51 -22 0 -42 -11 -74 -42 -42 -42 -44 -43 -110 -43 -55 0 -73 4 -100 24 -34 26 -78 104 -67 121 4 6 80 10 206 10 l199 0 0 30 c0 16 -9 54 -20 84 -42 111 -164 180 -274 155z m107 -83 c39 -16 87 -70 87 -97 0 -18 -9 -19 -150 -19 -82 0 -150 2 -150 5 0 14 30 62 52 82 45 43 104 53 161 29z"></path><path d="M21687 2935 c-61 -17 -93 -38 -118 -78 -34 -56 -14 -88 47 -73 13 4 24 12 24 19 0 25 46 57 91 63 86 12 159 -27 144 -77 -10 -29 -38 -39 -137 -50 -50 -5 -110 -18 -134 -28 -113 -50 -112 -200 1 -256 58 -29 155 -27 219 4 40 20 50 21 57 10 5 -8 9 -18 9 -22 0 -5 16 -7 36 -5 l37 3 -2 190 c-2 159 -5 196 -19 225 -34 66 -157 103 -255 75z m193 -281 c0 -59 -23 -99 -72 -123 -75 -36 -180 -23 -199 26 -24 65 19 100 140 112 43 5 86 13 97 19 26 14 34 6 34 -34z"></path><path d="M22679 2936 c-195 -52 -252 -297 -102 -440 91 -87 251 -82 334 11 42 47 48 57 63 117 12 46 13 69 5 109 -23 110 -87 180 -187 203 -66 16 -55 16 -113 0z m125 -86 c86 -42 121 -153 76 -244 -54 -113 -191 -128 -266 -31 -40 53 -46 146 -13 204 46 83 124 110 203 71z"></path><path d="M23222 2935 c-24 -7 -52 -21 -63 -31 -18 -16 -19 -16 -19 4 0 19 -6 22 -40 22 l-40 0 2 -242 3 -243 35 0 35 0 5 171 c4 154 7 174 25 194 26 29 68 50 99 50 27 0 42 29 34 67 -4 23 -23 25 -76 8z"></path><path d="M13572 2736 c3 -179 5 -197 24 -223 30 -40 78 -70 125 -78 45 -8 122 9 140 31 16 20 26 17 32 -7 4 -16 12 -20 39 -17 l33 3 3 243 2 242 -40 0 -40 0 0 -159 c0 -155 -6 -199 -33 -225 -36 -36 -102 -47 -152 -24 -51 23 -60 57 -63 241 l-4 167 -34 0 -35 0 3 -194z"></path><path d="M16890 2685 l0 -246 38 3 37 3 0 240 0 240 -37 3 -38 3 0 -246z"></path><path d="M19140 2768 c0 -237 22 -294 126 -324 62 -18 100 -14 159 16 48 24 45 24 45 -1 0 -17 5 -20 38 -17 l37 3 3 243 2 242 -40 0 -40 0 0 -155 c0 -213 -19 -254 -124 -263 -48 -4 -56 -1 -87 26 l-34 30 -3 181 -3 181 -40 0 -39 0 0 -162z"></path><path d="M22055 2838 c18 -51 58 -160 88 -243 l55 -150 37 -3 c42 -4 60 8 70 46 7 31 119 342 141 390 21 48 18 52 -29 52 l-43 0 -43 -127 c-24 -71 -51 -150 -61 -177 -9 -28 -21 -51 -27 -53 -5 -2 -16 16 -23 39 -8 24 -26 77 -41 118 -15 41 -37 103 -49 138 l-22 62 -43 0 -42 0 32 -92z"></path><path d="M18162 2493 l3 -48 43 -3 42 -3 0 50 0 51 -46 0 -45 0 3 -47z"></path><path d="M23312 2493 l3 -48 42 -3 c38 -3 43 0 48 21 4 14 5 36 3 48 -3 21 -9 24 -51 27 l-48 3 3 -48z"></path></g></svg> 