<?xml version="1.0" encoding="UTF-8"?> <svg xmlns="http://www.w3.org/2000/svg" width="341" height="50"><path d="M30.315.041C21.71.643 13.159 2.531 8.07 4.952 5.84 6.006 4.814 6.703 3.473 8.031c-.917.903-1.163 1.272-1.806 2.613-2.408 4.953-2.23 9.303.684 16.855 1.368 3.516 3.667 7.538 5.774 10.083 1.012 1.204 3.284 3.502 4.433 4.474 2.668 2.23 6.307 4.296 9.823 5.555 4.638 1.669 10.083 2.545 14.639 2.367 5.308-.191 11.999-2.34 16.91-5.431 6.348-3.981 10.918-9.44 14.146-16.896 1.218-2.777 1.929-3.407 3.899-3.393 1.82 0 3.489.725 4.364 1.861.52.698.821 2.011.698 3.16a7.79 7.79 0 0 1-2.175 4.843c-1.04 1.122-1.929 1.628-4.501 2.558-.506.192-.712.356-.917.78-.451.889-.342 1.56.383 2.339.643.698 1.669.629 3.749-.233 1.915-.807 3.94-2.422 5.158-4.132 1.902-2.654 2.627-6.526 1.751-9.344-.342-1.108-1.012-2.285-1.765-3.065-1.108-1.149-3.297-2.162-5.418-2.476-2.476-.383-4.337.082-6.157 1.56-.903.725-1.697 1.943-2.49 3.831-1.259 3.037-2.558 5.336-4.296 7.675-1.19 1.587-3.735 4.241-5.213 5.432-4.145 3.325-9.344 5.691-14.707 6.69-2.764.506-4.009.602-5.979.452-10.069-.753-17.444-4.132-22.861-10.452-3.352-3.913-5.773-8.729-7.292-14.571-.397-1.491-.451-1.929-.465-3.489 0-1.094.068-2.066.192-2.517l.192-.739 1.519-.711c2.983-1.409 6.348-2.435 9.864-3.037 1.915-.315 2.572-.369 5.267-.369 2.846-.014 3.242.014 5.131.383 2.791.534 5.103 1.354 8.346 2.969 3.968 1.97 6.991 2.887 10.726 3.27 4.569.451 9.673-.315 14.885-2.257 1.464-.547 4.323-1.915 5.514-2.627.698-.41.766-.438.93-.219.739 1.012-1.026 2.955-4.009 4.405-6.471 3.133-17.498 4.857-29.552 4.624-4.83-.096-6.772-.246-10.74-.794-3.461-.479-6.895-1.149-9.768-1.915-2.422-.643-2.75-.629-3.543.164-.534.52-.534.547-.479 1.368.082 1.231.506 1.573 2.572 2.148 8.359 2.298 18.018 3.229 28.389 2.764 14.461-.67 25.228-3.653 29.319-8.14 2.805-3.065 2.175-6.8-1.614-9.604C62.631 3.612 54.668 1.464 42.697.287 40.617.095 32.108-.082 30.315.041zm12.04 4.282c7.279.739 13.298 1.751 16.212 2.695 1.642.547 3.53 1.313 4.351 1.779.616.342.616.356-1.067 1.177-6.362 3.106-13.175 4.2-18.921 3.051-2.422-.492-4.227-1.149-7.032-2.545-4.16-2.08-6.198-2.764-10.521-3.503-1.122-.192-2.134-.246-4.706-.233-2.9 0-3.53.055-5.473.369-1.204.205-2.764.534-3.475.725-.698.192-1.3.315-1.341.287-.123-.137 2.996-1.231 5.5-1.915 2.818-.78 8.551-1.833 12.039-2.189.301-.041 3.01-.055 6.02-.027 4.474.027 6.006.082 8.414.328zm52.878 1.45c-4.2.794-7.333 3.639-8.441 7.675-.41 1.519-.41 4.173.014 5.719.999 3.721 3.79 6.458 7.607 7.497 1.477.397 4.72.424 6.157.055 1.477-.383 3.297-1.313 4.241-2.175l.821-.766-.958-.958-.958-.958-.793.657c-1.669 1.382-3.188 1.861-5.569 1.751-1.97-.082-3.037-.397-4.446-1.354a7.72 7.72 0 0 1-3.229-4.624c-.233-.971-.233-3.01 0-3.968.794-3.229 3.434-5.527 6.909-6.006 2.285-.315 4.679.342 6.403 1.792.753.629.794.616 1.888-.493l.739-.766-.465-.493c-.657-.684-2.148-1.642-3.188-2.039-1.97-.739-4.597-.944-6.731-.547zm21.644-.068c-3.626.657-6.458 2.682-7.963 5.664-.848 1.71-1.163 3.024-1.163 4.939 0 3.639 1.642 6.8 4.556 8.811 3.599 2.463 9.139 2.558 12.915.205 6.827-4.241 6.485-14.598-.602-18.415-1.573-.848-3.105-1.218-5.239-1.272-1.013-.027-2.148 0-2.504.068zm4.077 2.764c.383.068 1.204.383 1.819.684 2.696 1.272 4.324 3.981 4.324 7.155 0 3.543-1.984 6.375-5.336 7.62-.698.274-1.081.315-2.791.315s-2.107-.041-2.846-.315c-4.227-1.519-6.334-6.006-4.884-10.37.931-2.818 3.448-4.843 6.526-5.24.944-.123 2.134-.068 3.188.15zm126.073-2.641c-4.105.889-7.21 3.776-8.223 7.634-.383 1.423-.41 4.063-.054 5.445.957 3.831 3.926 6.786 7.798 7.757 1.724.424 4.693.424 6.293-.014 4.898-1.327 8.004-5.336 8.004-10.343.013-4.939-3.174-9.098-7.922-10.357-1.532-.397-4.364-.465-5.896-.123zm4.843 2.695c1.436.356 2.517.971 3.639 2.107 1.19 1.204 1.779 2.271 2.107 3.858.602 2.942-.123 5.514-2.107 7.497-1.765 1.765-3.516 2.408-6.293 2.285-1.902-.082-2.873-.383-4.337-1.354-1.519-1.026-2.559-2.49-3.133-4.433-.329-1.081-.315-3.242 0-4.364 1.272-4.364 5.527-6.718 10.124-5.596zM134.84 5.814c-.095.041-.136 3.667-.136 10.507v10.453h3.009l.028-4.214.041-4.2 5.267-.068 5.267-.068v-2.462l-5.267-.068-5.267-.068V8.512l5.924-.041 5.91-.027v-2.6l-7.319-.027c-4.023-.027-7.388-.027-7.457 0zm65.437 0-7.155.027v20.932h15.323v-2.6l-6.115-.027-6.13-.041-.041-3.325-.027-3.311h10.535l.068-.315c.055-.164.068-.739.041-1.259l-.041-.958-5.267-.068-5.268-.068V8.507l5.924-.041 5.911-.027V7.155c0-1.218-.014-1.286-.301-1.327-.178-.027-3.53-.041-7.457-.014zm115.169.028c-.095.068-.862 1.354-6.444 10.849-1.231 2.093-2.271 3.749-2.325 3.694s-1.656-2.723-3.557-5.924l-4.296-7.21-.835-1.409H295.458v20.932h2.873v-7.456l.11-7.456c.054 0 1.764 2.791 3.817 6.198l3.707 6.184h1.423l1.368-2.257 3.694-6.198c1.286-2.162 2.381-3.927 2.449-3.927s.123 3.256.123 7.456v7.456h2.873V16.308L317.8 5.842c-.944-.055-2.285-.055-2.354 0zM153.857 16.308v10.466h3.01v-8.482h10.549l-.041-1.272-.042-1.259-5.226-.041-5.24-.027V8.441h11.766v-2.6h-14.776v10.466zm19.018 0v10.466h15.323v-2.6h-12.314V17.47h10.535v-2.6h-10.535V8.44l5.924-.027 5.911-.041.041-1.272.041-1.259h-14.926v10.466zm48.568-10.302v20.522c0 .219.164.246 1.505.246h1.505v-8.482h10.548l-.041-1.272-.041-1.259-5.226-.041-5.24-.027V8.441h11.766v-2.6h-7.388l-7.388.164zm44.054 10.302v10.466h3.009V20.494l3.188-.041 3.338.068c.096.068 1.136 1.505 2.313 3.188l2.161 3.065h1.615c.889 0 1.614-.041 1.614-.082s-.356-.575-.807-1.19l-3.968-5.678c0-.055.37-.274.821-.479 2.312-1.094 3.68-3.434 3.68-6.266 0-2.887-1.313-5.021-3.83-6.252-1.82-.903-2.518-.985-8.223-.985h-4.911v10.466zm10.945-7.484c2.161.862 3.16 2.476 2.968 4.816-.191 2.216-1.573 3.612-4.036 4.05-.67.109-2.12.178-3.953.192h-2.915V8.414l3.599.055c3.269.055 3.653.096 4.337.356zm47.747 7.484v10.466h15.323v-2.6H327.199V17.47h10.534v-2.6h-10.534V8.44h11.766v-2.6h-14.776v10.466zM88.091 37.801c-.137.055-.178.807-.178 3.078v2.996l.356.082c.52.137 3.051-.027 3.612-.233 1.355-.465 1.97-1.464 1.888-3.065-.055-1.259-.493-1.957-1.546-2.463-.602-.301-.944-.356-2.34-.41-.889-.041-1.71-.027-1.792.014zm3.803 1.177c1.04.575 1.409 2.285.711 3.229-.52.711-1.081.917-2.435.917h-1.23l-.041-2.23-.027-2.216h1.245c1.026 0 1.341.055 1.779.301zm6.923-1.163c-.055.041-.096 1.423-.096 3.065 0 2.422.041 2.983.192 3.037.26.096 3.653.096 4.036 0 .192-.041.287-.178.287-.397 0-.315-.013-.315-1.737-.356l-1.751-.041-.041-.93-.041-.917H102.689v-.821h-3.01V38.69l1.683-.041c1.642-.041 1.669-.041 1.71-.369.028-.178-.027-.383-.136-.438-.206-.137-3.995-.164-4.119-.027zm9.495.164c-.191.342-.205 5.199-.027 5.664.096.233.233.328.451.315l.315-.014v-3.078c0-3.065 0-3.078-.301-3.119a.397.397 0 0 0-.438.233zm6.239-.164c-.164.151-.109 6.033.055 6.129.068.055.287.055.465.014.329-.082.329-.096.37-2.216l.041-2.134 1.696 2.107c1.601 1.998 2.107 2.449 2.367 2.189.068-.068.096-1.464.082-3.119l-.041-2.996h-.684l-.068 2.244-.069 2.257-1.628-2.025-1.874-2.285c-.26-.26-.548-.328-.712-.164zm16.513.082c-.027.096-.041 1.491-.027 3.106l.041 2.941.342-.014.451-.041c.178-.027.11-5.828-.068-6.006-.219-.219-.643-.205-.739.014zm6.403-.069c-.123.096-.164.807-.137 3.119l.041 2.996h.821l.041-2.162c.014-1.177.082-2.148.137-2.134.055 0 .862.971 1.82 2.148 1.368 1.724 1.778 2.148 2.052 2.148h.328v-6.156h-.684l-.041 2.216c-.013 1.231-.082 2.23-.137 2.216-.054 0-.903-.999-1.874-2.216l-1.984-2.244a.63.63 0 0 0-.383.068zm10.672 0c-.124.082-.165.807-.137 3.119l.041 2.996h1.71c1.601-.014 1.779-.027 2.504-.397 1.108-.534 1.518-1.177 1.573-2.476.041-.78 0-1.094-.219-1.519-.356-.684-.903-1.204-1.601-1.491-.615-.26-3.584-.438-3.871-.233zm3.885 1.204c.999.739 1.272 1.861.711 2.928-.478.917-.998 1.163-2.503 1.163H149l-.041-2.23-.041-2.244 1.369.055c1.121.027 1.436.096 1.737.328zm6.936-1.217c-.219.082-.26 5.992-.041 6.129.068.041.287.041.479-.014l.342-.082v-2.983c0-2.586-.027-2.996-.219-3.065-.246-.096-.315-.096-.561.014zm5.24.014c-.055.096 2.271 5.555 2.559 6.006.136.205.738.178.93-.041.123-.151.78-1.614 1.984-4.419.629-1.45.643-1.779.068-1.587-.301.096-.561.602-1.751 3.379-.342.821-.671 1.478-.725 1.478-.11 0-.288-.383-1.3-2.736l-.999-2.025c-.246-.192-.656-.219-.766-.055zm10.548-.028c-.055.055-.096 1.437-.096 3.078 0 2.955 0 2.969.301 3.051.178.041.356.027.424-.041.055-.055.083-1.45.069-3.106-.041-2.9-.055-2.996-.315-3.037-.164-.027-.328 0-.383.055zm6.239 0c-.136.055-.177.807-.177 3.078v2.996l.355.082c.206.055 1.013.055 1.806.014 2.504-.137 3.585-.958 3.694-2.791.096-1.491-.533-2.558-1.86-3.133-.507-.219-3.462-.41-3.818-.246zm3.872 1.231c.999.739 1.273 1.861.712 2.914-.452.889-1.095 1.177-2.572 1.177h-1.163l-.041-2.23-.041-2.244 1.368.055c1.122.027 1.436.096 1.737.328zm6.854-1.231c-.055.055-.096 1.067-.096 2.244 0 1.943.028 2.189.315 2.736.438.903 1.217 1.272 2.462 1.19 1.191-.082 1.82-.534 2.176-1.546.342-.971.356-4.542.027-4.665a.586.586 0 0 0-.451.055c-.178.109-.233.52-.288 2.353l-.068 2.23-.452.397a1.29 1.29 0 0 1-1.053.397c-1.546 0-1.751-.369-1.847-3.215-.068-2.08-.082-2.189-.342-2.23-.164-.027-.328 0-.383.055zm10.494.096c-.028.096-.041 1.491-.028 3.106l.041 2.941h4.241l.041-.383.042-.369h-1.711c-1.956 0-1.929.014-1.833-1.245l.041-.602 1.546-.041 1.532-.041v-.794l-1.532-.041-1.546-.041v-1.642l1.71-.068c1.669-.068 1.71-.068 1.751-.397.028-.178-.027-.383-.136-.438-.301-.205-4.077-.151-4.159.055zm9.563-.082c-.137.041-.178.794-.178 3.051 0 2.586.028 2.996.219 3.065.274.109 3.311.109 3.721 0 .206-.055.301-.192.301-.41 0-.328 0-.328-1.641-.328h-1.642v-2.654c0-2.298-.027-2.668-.219-2.736-.246-.096-.315-.096-.561.014zm8.743.013c-.124.096-.165.807-.137 3.119l.041 2.996 1.778.041c2.135.041 2.422 0 2.367-.424-.041-.287-.109-.301-1.642-.342l-1.641-.068c-.014-.014-.055-1.231-.096-2.695-.068-2.216-.109-2.668-.287-2.695a.63.63 0 0 0-.383.068zm8.619.055c-.123.123-.164.999-.164 3.065v2.914l.588.082c.315.055 1.313.068 2.216.041l1.642-.041.041-.369.041-.369-1.751-.041-1.751-.041-.041-.93-.041-.917h1.491c1.354 0 1.505-.027 1.573-.26.124-.465-.095-.547-1.546-.588l-1.436-.041-.041-.848-.041-.848 1.669-.041c1.382-.041 1.696-.082 1.806-.274.109-.164.096-.287-.028-.438-.15-.178-.519-.219-2.12-.219-1.327 0-1.998.055-2.107.164zm9.522-.082c-.069.055-.11 1.437-.11 3.078 0 2.504.028 2.983.206 3.051.437.164.602-.055.643-.917l.041-.848.916-.041.917-.041.657.903c.383.534.78.93.971.985.602.151.588-.151-.055-1.094l-.629-.917.438-.369c1.176-.985 1.067-2.654-.233-3.42-.533-.301-.807-.356-2.134-.41-.848-.041-1.573-.027-1.628.041zm3.297 1.081c.452.233.561.452.561 1.136-.014.958-.506 1.259-2.039 1.259h-1.108v-2.6h1.095c.711 0 1.245.068 1.491.205zm14.242-1.04c-1.833.561-2.722 2.271-2.161 4.132.178.602.862 1.382 1.518 1.71.643.342 1.998.41 2.778.137 1.053-.356 1.149-.506 1.149-1.82v-1.136h-.821v.848c0 .985-.068 1.136-.588 1.327-1.136.438-2.531-.068-3.065-1.094-.369-.739-.383-1.245-.055-1.97.616-1.341 1.998-1.792 3.38-1.094.643.328.67.328.916.082.247-.233.247-.26-.177-.602-.671-.575-1.943-.794-2.874-.52zm8.578-.041c-.055.055-.096 1.437-.096 3.078 0 2.572.028 2.983.219 3.051.329.123 3.927.096 4.132-.041.109-.068.164-.233.137-.369-.041-.233-.205-.26-1.792-.301l-1.738-.041V41.29l1.478-.041 1.463-.041.041-.383.042-.369h-3.024V38.691l1.683-.041 1.669-.041v-.82l-2.066-.041c-1.122-.014-2.093.014-2.148.055zm9.933.192c-.766.342-1.177.985-1.081 1.71.096.794.616 1.19 2.011 1.56.63.178 1.259.41 1.396.534.328.301.301.917-.069 1.177-.465.328-1.901.287-2.586-.055-.588-.315-.738-.287-.848.137-.123.479.835.876 2.162.876 1.642.014 2.435-.534 2.435-1.683 0-.903-.506-1.313-2.093-1.724-1.231-.315-1.505-.506-1.505-1.108 0-.424.055-.506.479-.684.588-.246 1.341-.233 2.038.014.63.219.766.178.766-.274 0-.67-2.011-.985-3.105-.479zm9.563.136c-.575.287-.971.616-1.19.944-.848 1.272-.616 3.242.465 4.159 1.026.862 2.668 1.012 3.872.342.629-.342.739-.602.355-.848-.177-.11-.355-.068-.766.164-1.039.575-2.517.274-3.174-.67-.684-.958-.424-2.531.52-3.174.889-.616 2.23-.616 2.942.014.205.192.26.178.506-.041.15-.137.273-.301.273-.356 0-.287-1.286-.848-2.093-.903-.752-.055-.944-.014-1.71.369zm8.756-.246c-.123.123-.164.944-.164 3.065v2.9l.342.082c.191.055.41.055.479.014.082-.055.137-.67.137-1.382v-1.286h3.557v1.382c0 1.368 0 1.382.314 1.3l.411-.082c.055 0 .082-1.368.068-3.051l-.041-3.037-.369-.041-.383-.041v2.764l-1.738-.041-1.751-.041-.068-1.3c-.069-1.177-.096-1.3-.342-1.341-.151-.014-.356.041-.452.137zm10.754-.055c-.233.041-.247.301-.247 3.037v2.983l.356.082c.205.055.424.041.479-.014.068-.068.137-1.026.15-2.134l.041-2.011 1.026 1.71c.63 1.053 1.109 1.71 1.245 1.71s.589-.616 1.204-1.642l1.081-1.642c.055 0 .123.876.137 1.956.055 1.956.123 2.189.575 2.107.178-.027.205-.479.246-2.969l-.027-3.092c-.028-.082-.206-.123-.397-.096-.233.041-.479.328-.848.971l-1.957 3.174c-.055 0-.629-.917-1.3-2.038l-1.368-2.093a.78.78 0 0 0-.396 0zm13.9-.013c-.424.082-3.147 6.006-2.805 6.102.452.109.808-.15 1.04-.78l.246-.629H319.51l.233.616c.287.753.506.944.944.835l.342-.082-1.136-2.504c-1.792-3.954-1.628-3.666-2.216-3.557zm.643 2.052.616 1.368.191.452h-2.585l.547-1.259c.588-1.354.656-1.478.739-1.478.041 0 .26.41.492.917zm8.523-1.833c-1.341.643-1.901 1.642-1.806 3.147.069 1.095.506 1.833 1.396 2.353 1.122.657 2.804.602 3.721-.137.383-.315.397-.315.137-.602l-.26-.274-.41.287c-.616.438-1.793.493-2.545.123-1.341-.698-1.642-2.435-.602-3.584.78-.862 2.257-1.053 3.119-.369.342.26.37.26.616.041.15-.137.273-.301.273-.356 0-.068-.273-.274-.615-.479-.917-.534-2.093-.588-3.024-.151zm8.496-.178c-.109.164-.109 5.842-.013 6.006.041.068.218.109.383.096.287-.014.314-.096.355-.78.041-.698.096-.821.616-1.327l.575-.575 1.094 1.3c1.163 1.368 1.355 1.505 1.833 1.327.288-.11.233-.205-.998-1.683l-1.314-1.628c.014-.041.561-.657 1.232-1.368s1.176-1.341 1.149-1.395c-.041-.055-.205-.11-.383-.11-.219 0-.807.506-1.929 1.642l-1.738 1.642c-.055 0-.109-.698-.109-1.56 0-1.3-.041-1.573-.219-1.642-.301-.123-.438-.109-.534.055z"></path></svg> 