<?xml version="1.0" encoding="UTF-8" standalone="no"?> <svg xmlns="http://www.w3.org/2000/svg" version="1.0" width="2600.000000pt" height="1000.000000pt" viewBox="0 0 2600.000000 1000.000000" preserveAspectRatio="xMidYMid meet"><g transform="translate(0.000000,1000.000000) scale(0.100000,-0.100000)" fill="#000000" stroke="none"><path d="M2660 6794 c-629 -44 -1254 -182 -1626 -359 -163 -77 -238 -128 -336 -225 -67 -66 -85 -93 -132 -191 -176 -362 -163 -680 50 -1232 100 -257 268 -551 422 -737 74 -88 240 -256 324 -327 195 -163 461 -314 718 -406 339 -122 737 -186 1070 -173 388 14 877 171 1236 397 464 291 798 690 1034 1235 89 203 141 249 285 248 133 0 255 -53 319 -136 38 -51 60 -147 51 -231 -13 -140 -63 -251 -159 -354 -76 -82 -141 -119 -329 -187 -37 -14 -52 -26 -67 -57 -33 -65 -25 -114 28 -171 47 -51 122 -46 274 17 140 59 288 177 377 302 139 194 192 477 128 683 -25 81 -74 167 -129 224 -81 84 -241 158 -396 181 -181 28 -317 -6 -450 -114 -66 -53 -124 -142 -182 -280 -92 -222 -187 -390 -314 -561 -87 -116 -273 -310 -381 -397 -303 -243 -683 -416 -1075 -489 -202 -37 -293 -44 -437 -33 -736 55 -1275 302 -1671 764 -245 286 -422 638 -533 1065 -29 109 -33 141 -34 255 0 80 5 151 14 184 l14 54 111 52 c218 103 464 178 721 222 140 23 188 27 385 27 208 1 237 -1 375 -28 204 -39 373 -99 610 -217 290 -144 511 -211 784 -239 334 -33 707 23 1088 165 107 40 316 140 403 192 51 30 56 32 68 16 54 -74 -75 -216 -293 -322 -473 -229 -1279 -355 -2160 -338 -353 7 -495 18 -785 58 -253 35 -504 84 -714 140 -177 47 -201 46 -259 -12 -39 -38 -39 -40 -35 -100 6 -90 37 -115 188 -157 611 -168 1317 -236 2075 -202 1057 49 1844 267 2143 595 205 224 159 497 -118 702 -318 236 -900 393 -1775 479 -152 14 -774 27 -905 18z m880 -313 c532 -54 972 -128 1185 -197 120 -40 258 -96 318 -130 45 -25 45 -26 -78 -86 -465 -227 -963 -307 -1383 -223 -177 36 -309 84 -514 186 -304 152 -453 202 -769 256 -82 14 -156 18 -344 17 -212 0 -258 -4 -400 -27 -88 -15 -202 -39 -254 -53 -51 -14 -95 -23 -98 -21 -9 10 219 90 402 140 206 57 625 134 880 160 22 3 220 4 440 2 327 -2 439 -6 615 -24z"></path><path d="M7405 6375 c-307 -58 -536 -266 -617 -561 -30 -111 -30 -305 1 -418 73 -272 277 -472 556 -548 108 -29 345 -31 450 -4 108 28 241 96 310 159 l60 56 -70 70 -70 70 -58 -48 c-122 -101 -233 -136 -407 -128 -144 6 -222 29 -325 99 -118 78 -203 200 -236 338 -17 71 -17 220 0 290 58 236 251 404 505 439 167 23 342 -25 468 -131 55 -46 58 -45 138 36 l54 56 -34 36 c-48 50 -157 120 -233 149 -144 54 -336 69 -492 40z"></path><path d="M8987 6380 c-265 -48 -472 -196 -582 -414 -62 -125 -85 -221 -85 -361 0 -266 120 -497 333 -644 263 -180 668 -187 944 -15 499 310 474 1067 -44 1346 -115 62 -227 89 -383 93 -74 2 -157 0 -183 -5z m298 -202 c28 -5 88 -28 133 -50 197 -93 316 -291 316 -523 0 -259 -145 -466 -390 -557 -51 -20 -79 -23 -204 -23 -125 0 -154 3 -208 23 -309 111 -463 439 -357 758 68 206 252 354 477 383 69 9 156 5 233 -11z"></path><path d="M18500 6371 c-300 -65 -527 -276 -601 -558 -28 -104 -30 -297 -4 -398 70 -280 287 -496 570 -567 126 -31 343 -31 460 1 358 97 585 390 585 756 1 361 -232 665 -579 757 -112 29 -319 34 -431 9z m354 -197 c105 -26 184 -71 266 -154 87 -88 130 -166 154 -282 44 -215 -9 -403 -154 -548 -129 -129 -257 -176 -460 -167 -139 6 -210 28 -317 99 -111 75 -187 182 -229 324 -24 79 -23 237 0 319 93 319 404 491 740 409z"></path><path d="M10300 6372 c-7 -3 -10 -268 -10 -768 l0 -764 110 0 110 0 2 308 3 307 385 5 385 5 0 90 0 90 -385 5 -385 5 0 260 0 260 433 3 432 2 0 95 0 95 -535 2 c-294 2 -540 2 -545 0z"></path><path d="M15083 6372 l-523 -2 0 -765 0 -765 560 0 560 0 0 95 0 95 -447 2 -448 3 -3 243 -2 242 385 0 385 0 5 23 c4 12 5 54 3 92 l-3 70 -385 5 -385 5 0 230 0 230 433 3 432 2 0 94 c0 89 -1 94 -22 97 -13 2 -258 3 -545 1z"></path><path d="M23501 6370 c-7 -5 -63 -99 -471 -793 -90 -153 -166 -274 -170 -270 -4 4 -121 199 -260 433 -139 234 -280 471 -314 527 l-61 103 -92 0 -93 0 0 -765 0 -765 105 0 105 0 0 545 c0 300 3 545 8 545 4 0 129 -204 279 -453 l271 -452 52 0 52 0 100 165 c54 91 176 294 270 453 94 158 174 287 179 287 5 0 9 -238 9 -545 l0 -545 105 0 105 0 0 765 c0 421 -3 765 -7 765 -69 4 -167 4 -172 0z"></path><path d="M11690 5605 l0 -765 110 0 110 0 0 310 0 310 385 0 386 0 -3 93 -3 92 -382 3 -383 2 0 265 0 265 430 0 430 0 0 95 0 95 -540 0 -540 0 0 -765z"></path><path d="M13080 5605 l0 -765 560 0 560 0 0 95 0 95 -450 0 -450 0 0 245 0 245 385 0 385 0 0 95 0 95 -385 0 -385 0 0 235 0 235 433 2 432 3 3 93 3 92 -546 0 -545 0 0 -765z"></path><path d="M16630 6358 c0 -38 0 -1486 0 -1500 0 -16 12 -18 110 -18 l110 0 0 310 0 310 385 0 386 0 -3 93 -3 92 -382 3 -383 2 0 265 0 265 430 0 430 0 0 95 0 95 -540 0 c-425 0 -540 -3 -540 -12z"></path><path d="M19850 5605 l0 -765 110 0 110 0 0 229 0 230 233 3 c127 2 237 -1 244 -5 7 -5 83 -110 169 -233 l158 -224 118 0 c65 0 118 3 118 6 0 3 -26 42 -59 87 -209 293 -291 409 -290 415 0 4 27 20 60 35 169 80 269 251 269 458 0 211 -96 367 -280 457 -133 66 -184 72 -601 72 l-359 0 0 -765z m800 547 c158 -63 231 -181 217 -352 -14 -162 -115 -264 -295 -296 -49 -8 -155 -13 -289 -14 l-213 0 0 346 0 346 263 -4 c239 -4 267 -7 317 -26z"></path><path d="M24140 5605 l0 -765 560 0 560 0 0 95 0 95 -450 0 -450 0 0 245 0 245 385 0 385 0 0 95 0 95 -385 0 -385 0 0 235 0 235 430 0 430 0 0 95 0 95 -540 0 -540 0 0 -765z"></path><path d="M6883 4034 c-10 -4 -13 -59 -13 -225 l0 -219 26 -6 c38 -10 223 2 264 17 99 34 144 107 138 224 -4 92 -36 143 -113 180 -44 22 -69 26 -171 30 -65 3 -125 2 -131 -1z m278 -86 c76 -42 103 -167 52 -236 -38 -52 -79 -67 -178 -67 l-90 0 -3 163 -2 162 91 0 c75 0 98 -4 130 -22z"></path><path d="M7667 4033 c-4 -3 -7 -104 -7 -224 0 -177 3 -218 14 -222 19 -7 267 -7 295 0 14 3 21 13 21 29 0 23 -1 23 -127 26 l-128 3 -3 68 -3 67 111 0 110 0 0 30 0 30 -110 0 -110 0 0 65 0 64 123 3 c120 3 122 3 125 27 2 13 -2 28 -10 32 -15 10 -292 12 -301 2z"></path><path d="M8361 4021 c-14 -25 -15 -380 -2 -414 7 -17 17 -24 33 -23 l23 1 0 225 c0 224 0 225 -22 228 -14 2 -26 -4 -32 -17z"></path><path d="M8817 4033 c-12 -11 -8 -441 4 -448 5 -4 21 -4 34 -1 24 6 24 7 27 162 l3 156 124 -154 c117 -146 154 -179 173 -160 5 5 7 107 6 228 l-3 219 -25 0 -25 0 -5 -164 -5 -165 -119 148 c-65 82 -127 157 -137 167 -19 19 -40 24 -52 12z"></path><path d="M10024 4027 c-2 -7 -3 -109 -2 -227 l3 -215 25 1 c14 1 28 2 33 3 13 2 8 426 -5 439 -16 16 -47 15 -54 -1z"></path><path d="M10492 4032 c-9 -7 -12 -59 -10 -228 l3 -219 30 0 30 0 3 158 c1 86 6 157 10 156 4 0 63 -71 133 -157 100 -126 130 -157 150 -157 l24 0 0 225 0 225 -25 0 -25 0 -3 -162 c-1 -90 -6 -163 -10 -162 -4 0 -66 73 -137 162 -72 89 -137 163 -145 164 -8 2 -21 -1 -28 -5z"></path><path d="M11272 4032 c-9 -6 -12 -59 -10 -228 l3 -219 125 0 c117 1 130 2 183 29 81 39 111 86 115 181 3 57 0 80 -16 111 -26 50 -66 88 -117 109 -45 19 -262 32 -283 17z m284 -88 c73 -54 93 -136 52 -214 -35 -67 -73 -85 -183 -85 l-90 0 -3 163 -3 164 100 -4 c82 -2 105 -7 127 -24z"></path><path d="M12063 4033 c-16 -6 -19 -438 -3 -448 5 -3 21 -3 35 1 l25 6 0 218 c0 189 -2 219 -16 224 -18 7 -23 7 -41 -1z"></path><path d="M12446 4032 c-4 -7 166 -406 187 -439 10 -15 54 -13 68 3 9 11 57 118 145 323 46 106 47 130 5 116 -22 -7 -41 -44 -128 -247 -25 -60 -49 -108 -53 -108 -8 0 -21 28 -95 200 -32 74 -65 141 -73 148 -18 14 -48 16 -56 4z"></path><path d="M13217 4034 c-4 -4 -7 -105 -7 -225 0 -216 0 -217 22 -223 13 -3 26 -2 31 3 4 4 6 106 5 227 -3 212 -4 219 -23 222 -12 2 -24 0 -28 -4z"></path><path d="M13673 4034 c-10 -4 -13 -59 -13 -225 l0 -219 26 -6 c15 -4 74 -4 132 -1 183 10 262 70 270 204 7 109 -39 187 -136 229 -37 16 -253 30 -279 18z m283 -90 c73 -54 93 -136 52 -213 -33 -65 -80 -86 -188 -86 l-85 0 -3 163 -3 164 100 -4 c82 -2 105 -7 127 -24z"></path><path d="M14457 4034 c-4 -4 -7 -78 -7 -164 0 -142 2 -160 23 -200 32 -66 89 -93 180 -87 87 6 133 39 159 113 25 71 26 332 2 341 -9 3 -24 2 -33 -4 -13 -8 -17 -38 -21 -172 l-5 -163 -33 -29 c-25 -23 -42 -29 -77 -29 -113 0 -128 27 -135 235 -5 152 -6 160 -25 163 -12 2 -24 0 -28 -4z"></path><path d="M15224 4027 c-2 -7 -3 -109 -2 -227 l3 -215 155 0 155 0 3 28 3 27 -125 0 c-143 0 -141 -1 -134 91 l3 44 113 3 112 3 0 29 0 29 -112 3 -113 3 0 60 0 60 125 5 c122 5 125 5 128 29 2 13 -2 28 -10 32 -22 15 -298 11 -304 -4z"></path><path d="M15923 4033 c-10 -3 -13 -58 -13 -223 0 -189 2 -219 16 -224 20 -8 242 -8 272 0 15 4 22 14 22 30 0 24 0 24 -120 24 l-120 0 0 194 c0 168 -2 195 -16 200 -18 7 -23 7 -41 -1z"></path><path d="M16562 4032 c-9 -7 -12 -59 -10 -228 l3 -219 130 -3 c156 -3 177 0 173 31 -3 21 -8 22 -120 25 -65 1 -119 4 -120 5 -1 1 -4 90 -7 197 -5 162 -8 195 -21 197 -8 2 -21 -1 -28 -5z"></path><path d="M17192 4028 c-9 -9 -12 -73 -12 -224 l0 -213 43 -6 c23 -4 96 -5 162 -3 l120 3 3 27 3 27 -128 3 -128 3 -3 68 -3 67 109 0 c99 0 110 2 115 19 9 34 -7 40 -113 43 l-105 3 -3 62 -3 62 122 3 c101 3 124 6 132 20 8 12 7 21 -2 32 -11 13 -38 16 -155 16 -97 0 -146 -4 -154 -12z"></path><path d="M17888 4034 c-5 -4 -8 -105 -8 -225 0 -183 2 -218 15 -223 32 -12 44 4 47 67 l3 62 67 3 67 3 48 -66 c28 -39 57 -68 71 -72 44 -11 43 11 -4 80 l-46 67 32 27 c86 72 78 194 -17 250 -39 22 -59 26 -156 30 -62 3 -115 2 -119 -3z m241 -79 c33 -17 41 -33 41 -83 -1 -70 -37 -92 -149 -92 l-81 0 0 95 0 95 80 0 c52 0 91 -5 109 -15z"></path><path d="M19170 4031 c-134 -41 -199 -166 -158 -302 13 -44 63 -101 111 -125 47 -25 146 -30 203 -10 77 26 84 37 84 133 l0 83 -30 0 -30 0 0 -62 c0 -72 -5 -83 -43 -97 -83 -32 -185 5 -224 80 -27 54 -28 91 -4 144 45 98 146 131 247 80 47 -24 49 -24 67 -6 18 17 18 19 -13 44 -49 42 -142 58 -210 38z"></path><path d="M19797 4034 c-4 -4 -7 -105 -7 -225 0 -188 2 -218 16 -223 24 -9 287 -7 302 3 8 5 12 17 10 27 -3 17 -15 19 -131 22 l-127 3 0 69 0 69 108 3 107 3 3 28 3 27 -110 0 -111 0 0 65 0 64 123 3 122 3 0 30 0 30 -151 3 c-82 1 -153 -1 -157 -4z"></path><path d="M20523 4020 c-56 -25 -86 -72 -79 -125 7 -58 45 -87 147 -114 46 -13 92 -30 102 -39 24 -22 22 -67 -5 -86 -34 -24 -139 -21 -189 4 -43 23 -54 21 -62 -10 -9 -35 61 -64 158 -64 120 -1 178 39 178 123 0 66 -37 96 -153 126 -90 23 -110 37 -110 81 0 31 4 37 35 50 43 18 98 17 149 -1 46 -16 56 -13 56 20 0 49 -147 72 -227 35z"></path><path d="M21222 4010 c-42 -21 -71 -45 -87 -69 -62 -93 -45 -237 34 -304 75 -63 195 -74 283 -25 46 25 54 44 26 62 -13 8 -26 5 -56 -12 -76 -42 -184 -20 -232 49 -50 70 -31 185 38 232 65 45 163 45 215 -1 15 -14 19 -13 37 3 11 10 20 22 20 26 0 21 -94 62 -153 66 -55 4 -69 1 -125 -27z"></path><path d="M21862 4028 c-9 -9 -12 -69 -12 -224 l0 -212 25 -6 c14 -4 30 -4 35 -1 6 4 10 49 10 101 l0 94 130 0 130 0 0 -101 c0 -100 0 -101 23 -95 12 3 25 6 30 6 4 0 6 100 5 223 l-3 222 -27 3 -28 3 0 -101 0 -101 -127 3 -128 3 -5 95 c-5 86 -7 95 -25 98 -11 1 -26 -3 -33 -10z"></path><path d="M22648 4032 c-17 -3 -18 -22 -18 -222 l0 -218 26 -6 c15 -4 31 -3 35 1 5 5 10 75 11 156 l3 147 75 -125 c46 -77 81 -125 91 -125 10 0 43 45 88 120 40 66 75 120 79 120 4 0 9 -64 10 -143 4 -143 9 -160 42 -154 13 2 15 35 18 217 1 118 0 220 -2 226 -2 6 -15 9 -29 7 -17 -3 -35 -24 -62 -71 -87 -151 -137 -232 -143 -232 -4 0 -46 67 -95 149 -48 82 -93 151 -100 153 -6 2 -20 3 -29 0z"></path><path d="M23664 4033 c-31 -6 -230 -439 -205 -446 33 -8 59 11 76 57 l18 46 123 0 122 0 17 -45 c21 -55 37 -69 69 -61 l25 6 -83 183 c-131 289 -119 268 -162 260z m47 -150 c17 -38 37 -83 45 -100 l14 -33 -94 0 -95 0 40 92 c43 99 48 108 54 108 3 0 19 -30 36 -67z"></path><path d="M24334 4017 c-98 -47 -139 -120 -132 -230 5 -80 37 -134 102 -172 82 -48 205 -44 272 10 28 23 29 23 10 44 l-19 20 -30 -21 c-45 -32 -131 -36 -186 -9 -98 51 -120 178 -44 262 57 63 165 77 228 27 25 -19 27 -19 45 -3 11 10 20 22 20 26 0 5 -20 20 -45 35 -67 39 -153 43 -221 11z"></path><path d="M24955 4030 c-8 -12 -8 -427 -1 -439 3 -5 16 -8 28 -7 21 1 23 7 26 57 3 51 7 60 45 97 l42 42 80 -95 c85 -100 99 -110 134 -97 21 8 17 15 -73 123 -53 62 -96 116 -96 119 1 3 41 48 90 100 49 52 86 98 84 102 -3 4 -15 8 -28 8 -16 0 -59 -37 -141 -120 -66 -66 -123 -120 -127 -120 -4 0 -8 51 -8 114 0 95 -3 115 -16 120 -22 9 -32 8 -39 -4z"></path></g></svg> 