<?xml version="1.0" encoding="UTF-8"?> <svg xmlns="http://www.w3.org/2000/svg" width="29" height="20" fill="#fff"><path d="m28.142 9.382-2.668-4.117a.885.885 0 0 0-.742-.406h-5.791a.886.886 0 0 0-.883.883v8.763c0 .49.398.883.883.883h.331c-.221.428-.34.91-.34 1.422 0 1.758 1.431 3.189 3.185 3.189s3.189-1.431 3.189-3.189c0-.512-.119-.994-.34-1.422H27.4a.883.883 0 0 0 .883-.883V9.863a.88.88 0 0 0-.141-.481zm-4.602 7.429c0 .782-.636 1.422-1.422 1.422a1.42 1.42 0 0 1-1.418-1.422c0-.782.636-1.422 1.418-1.422s1.422.64 1.422 1.422zM16.3 0H.898a.886.886 0 0 0-.883.883v13.622c0 .49.398.883.883.883h2.434c-.221.428-.34.91-.34 1.422A3.193 3.193 0 0 0 6.181 20a3.19 3.19 0 0 0 3.185-3.189c0-.512-.119-.994-.34-1.422H16.3a.883.883 0 0 0 .883-.883V.883A.886.886 0 0 0 16.3 0zm-2.99 11.952H3.884a.883.883 0 1 1 0-1.766h9.426c.49 0 .883.398.883.883a.88.88 0 0 1-.883.883zm-5.711 4.859c0 .782-.636 1.422-1.418 1.422s-1.422-.64-1.422-1.422.636-1.422 1.422-1.422a1.42 1.42 0 0 1 1.418 1.422z"></path></svg> 