<?xml version="1.0" encoding="UTF-8" standalone="no"?> <svg xmlns="http://www.w3.org/2000/svg" version="1.0" width="900.000000pt" height="900.000000pt" viewBox="0 0 900.000000 900.000000" preserveAspectRatio="xMidYMid meet"><g transform="translate(0.000000,900.000000) scale(0.100000,-0.100000)" fill="#000000" stroke="none"><path d="M3142 7545 c-59 -26 -92 -56 -119 -108 l-26 -52 6 -210 c22 -709 149 -1509 353 -2215 25 -85 54 -169 65 -187 30 -48 99 -92 163 -104 34 -6 363 -9 898 -7 l843 3 44 23 c49 26 85 62 108 106 18 35 86 267 105 357 l12 61 -27 24 c-26 23 -36 24 -155 24 -96 0 -133 -4 -149 -15 -14 -10 -28 -42 -43 -96 -27 -102 -36 -117 -80 -129 -49 -14 -1357 -13 -1397 0 -16 6 -36 23 -45 38 -28 48 -188 711 -188 778 0 37 22 70 60 89 25 13 109 15 565 15 522 0 535 0 555 20 18 18 20 33 20 149 0 112 -3 132 -19 152 l-19 24 -600 3 -599 2 -23 25 c-27 29 -41 105 -65 374 -24 265 -31 416 -22 451 5 19 20 38 40 50 31 19 57 20 1039 20 703 0 1014 -3 1031 -11 13 -6 32 -24 42 -41 16 -27 17 -45 11 -157 -9 -154 -42 -520 -56 -603 -6 -39 -17 -70 -31 -85 -22 -23 -24 -23 -249 -23 -297 0 -280 11 -280 -179 0 -121 2 -140 18 -154 17 -15 57 -17 371 -17 388 0 399 1 444 61 31 43 32 45 56 214 43 290 78 677 88 972 5 159 4 188 -11 227 -21 54 -92 121 -145 136 -23 6 -480 10 -1296 10 -1075 -1 -1265 -3 -1293 -15z"></path><path d="M2145 3661 c-123 -26 -193 -54 -280 -112 -166 -111 -239 -254 -238 -464 2 -216 97 -371 293 -478 65 -36 168 -72 530 -187 223 -71 293 -104 359 -165 75 -70 96 -122 96 -235 0 -87 -3 -100 -30 -149 -76 -137 -234 -204 -480 -203 -140 1 -241 23 -338 74 -109 58 -179 146 -241 301 l-15 37 -99 0 c-127 0 -132 -5 -107 -95 54 -201 175 -351 354 -441 195 -97 520 -120 761 -53 279 77 450 282 450 541 0 180 -62 318 -193 425 -98 81 -158 105 -657 263 -189 60 -283 105 -346 167 -66 64 -88 119 -89 223 0 73 4 93 28 142 68 138 221 211 447 211 167 0 296 -41 398 -129 49 -41 117 -145 138 -210 9 -27 24 -55 32 -61 23 -18 196 -18 211 0 8 11 6 33 -8 90 -64 250 -253 433 -514 498 -121 30 -342 35 -462 10z"></path><path d="M7954 3670 c-378 -68 -631 -348 -721 -797 -22 -111 -25 -480 -5 -588 83 -440 304 -713 656 -807 66 -18 108 -22 226 -21 127 0 156 3 233 27 153 46 269 117 369 225 159 172 252 412 279 727 24 274 -28 571 -137 786 -104 206 -303 370 -519 428 -91 24 -296 35 -381 20z m252 -215 c123 -23 213 -72 303 -163 180 -182 264 -493 231 -865 -23 -265 -97 -455 -230 -587 -121 -122 -245 -173 -415 -172 -334 2 -566 257 -624 685 -6 43 -11 142 -11 220 0 488 196 816 525 881 93 19 129 19 221 1z"></path><path d="M2 2568 l3 -1063 690 0 690 0 0 100 0 100 -565 5 -565 5 -3 378 -2 377 457 0 c252 0 464 4 471 8 9 6 12 35 10 108 l-3 99 -467 3 -468 2 0 365 0 365 568 2 567 3 0 100 0 100 -693 3 -692 2 2 -1062z"></path><path d="M3520 2565 l0 -1065 119 0 c99 0 120 3 125 16 3 9 6 166 6 349 l0 334 378 4 c358 3 381 5 452 26 182 56 305 155 379 305 86 175 103 458 40 663 -67 220 -217 357 -449 413 -79 19 -117 20 -567 20 l-483 0 0 -1065z m940 845 c206 -39 330 -196 346 -439 17 -238 -65 -425 -219 -501 -107 -52 -168 -60 -509 -60 l-308 0 0 505 0 505 319 0 c175 0 342 -5 371 -10z"></path><path d="M5415 3618 c-3 -7 -4 -485 -3 -1063 l3 -1050 123 -3 122 -3 0 411 0 411 228 -3 c275 -4 305 -12 408 -112 55 -52 88 -103 240 -366 98 -168 184 -313 192 -322 13 -16 34 -18 149 -18 150 0 153 2 111 70 -11 19 -95 161 -186 315 -90 154 -178 300 -195 325 -43 63 -103 117 -159 143 -26 12 -47 25 -48 28 0 3 25 11 56 18 30 7 95 33 144 57 236 118 353 341 321 612 -28 231 -131 389 -314 481 -152 76 -143 75 -695 79 -396 2 -493 0 -497 -10z m916 -208 c190 -36 313 -166 341 -359 27 -196 -55 -380 -204 -457 -97 -49 -138 -54 -485 -54 l-323 0 0 440 0 440 309 0 c169 0 332 -5 362 -10z"></path></g></svg> 