<?xml version="1.0" encoding="UTF-8" standalone="no"?> <svg xmlns="http://www.w3.org/2000/svg" version="1.0" width="329.000000pt" height="185.000000pt" viewBox="0 0 329.000000 185.000000" preserveAspectRatio="xMidYMid meet"><g transform="translate(0.000000,185.000000) scale(0.100000,-0.100000)" fill="#000000" stroke="none"><path d="M1696 1170 c-39 -12 -75 -47 -97 -95 -14 -31 -19 -64 -19 -150 0 -137 10 -174 59 -218 96 -86 237 -44 280 82 14 42 14 213 1 263 -28 98 -123 148 -224 118z m108 -125 c12 -18 16 -49 16 -128 0 -90 -3 -106 -20 -125 -24 -26 -52 -28 -84 -7 -19 13 -25 28 -31 80 -8 79 2 171 22 191 24 24 78 18 97 -11z"></path><path d="M347 1149 c-77 -67 -35 -189 65 -189 57 0 108 51 108 108 0 60 -32 93 -96 99 -43 4 -54 2 -77 -18z m121 -72 c4 -32 -14 -67 -33 -67 -11 0 -14 14 -14 61 1 59 2 60 23 46 11 -8 22 -26 24 -40z"></path><path d="M650 920 l0 -250 55 0 55 0 0 100 0 99 83 3 82 3 3 29 c2 15 1 39 -2 52 -6 23 -10 24 -86 24 l-80 0 0 43 0 43 82 -1 83 0 5 30 c3 17 4 40 2 53 -4 22 -7 22 -143 22 l-139 0 0 -250z"></path><path d="M1260 986 c0 -154 -3 -187 -16 -200 -35 -36 -104 -3 -104 49 0 23 -3 25 -50 25 -59 0 -66 -10 -50 -69 40 -150 245 -176 315 -40 12 22 15 71 15 224 l0 195 -55 0 -55 0 0 -184z"></path><path d="M2145 1158 c-3 -7 -4 -119 -3 -248 l3 -235 50 0 50 0 3 98 c2 71 6 97 16 97 10 0 43 -66 87 -177 7 -20 16 -23 58 -23 27 0 52 4 55 9 3 4 -13 52 -35 105 l-41 96 35 39 c47 52 56 99 31 159 -31 74 -56 86 -190 90 -89 3 -115 1 -119 -10z m182 -94 c25 -7 37 -34 28 -64 -5 -16 -15 -20 -56 -20 l-49 0 0 45 c0 42 2 45 28 45 15 0 37 -3 49 -6z"></path><path d="M2680 919 l0 -251 113 4 c130 4 161 18 196 91 18 36 21 62 21 159 0 101 -3 120 -23 159 -13 24 -38 54 -57 67 -29 19 -45 22 -141 22 l-109 0 0 -251z m209 119 c9 -14 13 -57 13 -120 0 -117 -11 -138 -74 -138 l-38 0 0 138 c0 76 2 141 4 143 3 3 22 3 44 1 25 -2 43 -11 51 -24z"></path></g></svg> 