<?xml version="1.0" encoding="UTF-8"?> <svg xmlns="http://www.w3.org/2000/svg" xmlns:xlink="http://www.w3.org/1999/xlink" width="1300" zoomAndPan="magnify" viewBox="0 0 974.88 374.999991" height="500" preserveAspectRatio="xMidYMid meet" version="1.0"><defs><clipPath id="id1"><path d="M 732 85.351562 L 937.378906 85.351562 L 937.378906 289.957031 L 732 289.957031 Z M 732 85.351562 " clip-rule="nonzero"></path></clipPath><clipPath id="id2"><path d="M 37.496094 90 L 59 90 L 59 285 L 37.496094 285 Z M 37.496094 90 " clip-rule="nonzero"></path></clipPath></defs><g clip-path="url(#id1)"><path fill="#000000" d="M 854.832031 106.824219 C 877.421875 112.71875 894.328125 126.070312 906.050781 146.074219 C 910.6875 153.984375 913.945312 162.511719 915.414062 171.605469 C 916.277344 176.972656 916.789062 182.394531 917.167969 185.433594 C 916.726562 209.636719 909.507812 228.742188 894.753906 244.894531 C 884.324219 256.316406 871.597656 264.109375 856.769531 268.335938 C 845.71875 271.488281 834.453125 272.097656 823.0625 270.324219 C 805.578125 267.601562 790.605469 259.882812 778.082031 247.5 C 767.894531 237.425781 760.828125 225.414062 756.75 211.628906 C 754.410156 203.71875 753.113281 195.644531 753.257812 187.445312 C 753.648438 165.683594 760.976562 146.574219 775.800781 130.476562 C 785.59375 119.84375 797.421875 112.316406 811.15625 108.007812 C 825.542969 103.488281 840.148438 102.992188 854.832031 106.824219 M 750.28125 131.019531 C 737.742188 149.332031 732.148438 169.835938 733.097656 191.988281 C 734.183594 217.382812 743.523438 239.417969 761.011719 257.894531 C 776.941406 274.726562 796.089844 285.949219 818.640625 288.71875 C 835.804688 290.828125 842.546875 289.835938 850.410156 288.71875 C 863.777344 286.820312 876.246094 282.269531 887.863281 275.265625 C 905.015625 264.921875 918.054688 250.71875 926.960938 232.789062 C 932.183594 222.277344 935.511719 211.164062 936.707031 199.449219 C 936.78125 198.722656 937.148438 198.027344 937.378906 197.316406 L 937.378906 178.65625 C 936.90625 176.054688 936.375 173.460938 935.960938 170.847656 C 933.53125 155.632812 927.773438 141.757812 918.894531 129.222656 C 905.933594 110.929688 888.816406 98.128906 867.539062 90.949219 C 860.859375 88.695312 853.984375 87.515625 847.015625 86.429688 C 833.175781 84.269531 823.753906 86.03125 823.753906 86.03125 C 792.800781 90.367188 768.058594 105.0625 750.28125 131.019531 " fill-opacity="1" fill-rule="nonzero"></path></g><g clip-path="url(#id2)"><path fill="#000000" d="M 38.246094 284.472656 L 40.605469 284.472656 C 45.488281 284.472656 50.375 284.472656 55.257812 284.472656 C 58.308594 284.472656 58.335938 284.472656 58.339844 281.476562 C 58.351562 263.515625 58.351562 245.550781 58.351562 227.589844 C 58.355469 183.609375 58.355469 139.625 58.355469 95.640625 C 58.355469 94.816406 58.308594 93.988281 58.363281 93.167969 C 58.472656 91.511719 57.726562 90.964844 56.097656 90.984375 C 50.265625 91.054688 44.433594 91.011719 38.355469 91.011719 L 38.355469 90.992188 L 37.496094 90.992188 L 37.496094 284.496094 L 38.246094 284.496094 Z M 38.246094 284.472656 " fill-opacity="1" fill-rule="nonzero"></path></g><path fill="#000000" d="M 525.257812 92.847656 C 525.21875 91.714844 524.648438 91.113281 523.457031 91.113281 C 517.8125 91.125 512.164062 91.132812 506.519531 91.113281 C 505.394531 91.109375 504.882812 91.613281 504.894531 92.714844 C 504.902344 93.351562 504.882812 93.984375 504.882812 94.621094 C 504.886719 144.757812 504.882812 194.898438 504.902344 245.035156 C 504.902344 249.742188 504.074219 254.214844 501.886719 258.425781 C 498.382812 265.15625 489.496094 269.121094 482.136719 267.253906 C 476.261719 265.761719 472.195312 261.871094 469.285156 256.933594 C 466.660156 252.488281 464.566406 247.699219 462.589844 242.914062 C 456.300781 227.699219 450.171875 212.417969 443.992188 197.15625 C 438.835938 184.421875 433.699219 171.675781 428.542969 158.941406 C 424.289062 148.4375 420.03125 137.933594 415.746094 127.4375 C 412.902344 120.46875 410.367188 113.347656 405.984375 107.105469 C 398.992188 97.148438 390.183594 89.9375 377.789062 87.828125 C 362.832031 85.285156 347.390625 92.5625 339.835938 105.796875 C 335.433594 113.507812 333.839844 121.828125 333.847656 130.617188 C 333.890625 179.804688 333.867188 228.988281 333.867188 278.175781 C 333.867188 279.507812 333.914062 280.84375 333.855469 282.175781 C 333.773438 283.898438 334.53125 284.53125 336.242188 284.507812 C 341.378906 284.441406 346.519531 284.488281 351.660156 284.476562 C 354.15625 284.472656 354.167969 284.453125 354.167969 281.898438 C 354.167969 256.066406 354.167969 230.234375 354.167969 204.402344 C 354.164062 179.460938 354.164062 154.519531 354.167969 129.578125 C 354.167969 125.480469 354.820312 121.527344 356.421875 117.710938 C 360.199219 108.714844 372.402344 103.980469 381.207031 109.382812 C 386.9375 112.90625 390.46875 118.183594 393.023438 124.125 C 397.023438 133.425781 400.726562 142.855469 404.53125 152.238281 C 410.691406 167.4375 416.832031 182.644531 422.988281 197.84375 C 429.050781 212.804688 435.054688 227.789062 441.230469 242.707031 C 444.304688 250.121094 447.113281 257.742188 451.085938 264.671875 C 457.800781 276.382812 467.378906 284.921875 481.367188 286.960938 C 495.050781 288.953125 506.507812 284.523438 515.503906 274.097656 C 522.878906 265.554688 525.285156 255.207031 525.296875 244.214844 C 525.34375 195.09375 525.320312 145.96875 525.316406 96.847656 C 525.316406 95.515625 525.304688 94.179688 525.257812 92.847656 " fill-opacity="1" fill-rule="nonzero"></path><path fill="#000000" d="M 732.429688 91.003906 C 703.253906 91 674.078125 91 644.898438 91 L 644.898438 91.015625 C 615.40625 91.015625 585.910156 91.015625 556.417969 91.019531 C 553.792969 91.019531 553.734375 91.085938 553.726562 93.667969 C 553.722656 97.097656 553.714844 100.523438 553.726562 103.949219 C 553.742188 108.320312 553.1875 107.871094 557.722656 107.875 C 580.746094 107.894531 603.773438 107.882812 626.796875 107.890625 C 631.339844 107.894531 631.03125 107.375 631.03125 112.050781 C 631.035156 167.636719 631.035156 223.222656 631.035156 278.808594 C 631.035156 280.011719 631.078125 281.21875 631.046875 282.421875 C 631.003906 283.953125 631.65625 284.527344 633.222656 284.503906 C 638.230469 284.433594 643.242188 284.484375 648.253906 284.484375 C 651.191406 284.484375 651.191406 284.476562 651.191406 281.5 C 651.191406 224.585938 651.195312 167.667969 651.199219 110.75 C 651.199219 107.902344 651.199219 107.902344 654.03125 107.902344 C 674.960938 107.898438 695.894531 107.78125 716.824219 107.953125 C 726.078125 108.027344 732.675781 102.523438 735.140625 95.019531 C 736.289062 91.523438 736.003906 91.003906 732.429688 91.003906 " fill-opacity="1" fill-rule="nonzero"></path><path fill="#000000" d="M 161.242188 127.003906 C 172.464844 115.714844 183.699219 104.4375 194.914062 93.140625 C 195.363281 92.6875 195.6875 92.109375 196.296875 91.273438 C 195.347656 91.148438 194.8125 91.015625 194.28125 91.011719 C 186.667969 91 179.054688 90.953125 171.441406 91.066406 C 170.445312 91.082031 169.246094 91.699219 168.507812 92.417969 C 162.589844 98.152344 156.746094 103.964844 150.898438 109.777344 C 138.351562 122.25 125.90625 134.824219 113.242188 147.175781 C 107.570312 152.703125 102.28125 158.441406 98.71875 165.582031 C 92.554688 177.933594 91.570312 190.664062 96.117188 203.730469 C 99.183594 212.539062 104.519531 219.84375 111.191406 226.277344 C 117.945312 232.789062 124.59375 239.410156 131.253906 246.015625 C 143.726562 258.382812 156.160156 270.785156 168.675781 283.109375 C 169.433594 283.855469 170.742188 284.417969 171.804688 284.433594 C 179.160156 284.539062 186.519531 284.484375 193.878906 284.472656 C 194.546875 284.46875 195.214844 284.390625 195.882812 284.347656 C 195.984375 284.152344 196.085938 283.957031 196.1875 283.761719 C 194.632812 282.054688 193.140625 280.28125 191.511719 278.644531 C 172.941406 259.988281 154.328125 241.375 135.777344 222.703125 C 130.957031 217.851562 126.054688 213.039062 121.632812 207.835938 C 117.332031 202.773438 114.847656 196.714844 114.367188 189.980469 C 113.644531 179.804688 117.546875 171.28125 124.410156 164.183594 C 136.53125 151.644531 148.945312 139.378906 161.242188 127.003906 " fill-opacity="1" fill-rule="nonzero"></path><path fill="#000000" d="M 268.882812 93.742188 C 268.882812 91.132812 268.777344 91.019531 266.238281 91.011719 C 261.417969 91 256.597656 91.003906 251.78125 91.011719 C 248.625 91.015625 248.609375 91.039062 248.609375 94.199219 C 248.609375 155.292969 248.609375 216.390625 248.605469 277.488281 C 248.605469 279.007812 248.640625 280.535156 248.570312 282.054688 C 248.488281 283.804688 249.136719 284.550781 251.003906 284.515625 C 255.882812 284.417969 260.769531 284.480469 265.652344 284.492188 C 268.894531 284.496094 268.898438 284.503906 268.898438 281.21875 C 268.898438 250.066406 268.898438 218.917969 268.898438 187.765625 L 268.882812 187.765625 C 268.882812 156.421875 268.886719 125.082031 268.882812 93.742188 " fill-opacity="1" fill-rule="nonzero"></path></svg> 