<?xml version="1.0" encoding="UTF-8" standalone="no"?> <svg xmlns="http://www.w3.org/2000/svg" version="1.0" width="778.000000pt" height="309.000000pt" viewBox="0 0 778.000000 309.000000" preserveAspectRatio="xMidYMid meet"><g transform="translate(0.000000,309.000000) scale(0.100000,-0.100000)" fill="#000000" stroke="none"><path d="M890 3070 c-19 -19 -20 -33 -20 -435 l0 -415 -415 0 c-402 0 -416 -1 -435 -20 -11 -11 -20 -30 -20 -42 0 -16 86 -109 295 -318 l295 -295 -295 -295 c-209 -210 -295 -302 -295 -318 0 -12 9 -31 20 -42 19 -19 33 -20 435 -20 l415 0 0 -415 c0 -402 1 -416 20 -435 11 -11 30 -20 42 -20 16 0 109 87 320 297 l298 298 -2 185 -3 185 -55 6 c-323 36 -555 331 -510 647 14 101 42 176 96 255 56 81 117 135 204 181 82 42 122 55 202 64 l63 7 3 185 2 185 -298 298 c-211 210 -304 297 -320 297 -12 0 -31 -9 -42 -20z"></path><path d="M7389 2330 c-99 -17 -184 -82 -231 -178 -29 -58 -33 -76 -33 -147 0 -67 4 -89 28 -136 98 -201 358 -251 519 -101 122 114 141 290 46 429 -69 102 -200 155 -329 133z m187 -58 c66 -34 101 -69 133 -134 55 -110 38 -235 -45 -327 -57 -64 -127 -94 -214 -94 -217 0 -357 226 -259 421 54 110 150 165 274 159 46 -3 84 -11 111 -25z"></path><path d="M7373 2223 l-63 -4 0 -209 0 -210 35 0 35 0 0 85 0 85 34 0 c31 0 37 -5 83 -82 48 -81 50 -83 91 -86 l42 -3 -59 93 -60 92 26 18 c36 23 52 55 53 103 0 90 -66 126 -217 118z m128 -79 c25 -22 24 -69 -1 -94 -15 -15 -33 -20 -70 -20 l-50 0 0 71 0 72 51 -6 c29 -4 60 -14 70 -23z"></path><path d="M2066 2305 c-88 -32 -116 -94 -116 -260 0 -82 0 -83 40 -131 144 -173 171 -426 69 -630 -17 -34 -48 -83 -70 -109 -39 -47 -39 -47 -39 -136 0 -125 14 -179 56 -222 64 -64 156 -68 224 -10 59 49 60 55 60 370 l0 288 338 -337 c299 -298 342 -338 381 -348 109 -29 210 70 186 182 -6 26 -66 92 -281 308 l-274 275 251 250 c138 138 264 270 280 294 31 48 37 96 18 134 -21 41 -63 77 -101 88 -80 21 -85 17 -448 -346 -184 -184 -338 -335 -342 -335 -5 0 -8 130 -8 289 0 282 0 289 -23 321 -42 64 -129 92 -201 65z"></path><path d="M3533 2310 c-45 -10 -81 -36 -103 -73 -19 -31 -20 -55 -20 -690 0 -558 2 -662 15 -686 52 -101 194 -119 275 -36 l35 36 0 684 0 683 -25 27 c-45 49 -114 70 -177 55z"></path><path d="M4143 2309 c-51 -15 -90 -62 -103 -122 -7 -37 -10 -249 -8 -673 3 -604 3 -620 24 -659 28 -53 93 -88 153 -82 51 6 88 31 116 78 19 32 20 57 25 465 l5 430 350 -449 c193 -247 367 -464 387 -482 76 -69 195 -49 242 40 21 39 21 50 21 695 0 637 -1 656 -20 688 -30 50 -79 76 -142 76 -57 0 -90 -17 -127 -68 -20 -26 -21 -43 -26 -461 l-5 -434 -365 463 c-200 255 -376 471 -391 480 -34 20 -96 27 -136 15z"></path><path d="M5747 2306 c-51 -19 -85 -52 -98 -95 -7 -24 -9 -196 -7 -506 l3 -470 27 -73 c67 -186 176 -295 358 -358 129 -45 337 -53 473 -18 205 52 336 170 413 374 l29 75 0 492 c0 484 0 492 -21 520 -68 91 -210 91 -278 0 -20 -28 -21 -40 -26 -501 l-5 -472 -37 -76 c-41 -82 -77 -114 -167 -148 -129 -50 -308 -2 -373 98 -64 98 -62 83 -68 597 -4 353 -8 476 -18 492 -36 63 -132 96 -205 69z"></path></g></svg> 