<?xml version="1.0" encoding="UTF-8"?> <svg xmlns="http://www.w3.org/2000/svg" width="61" height="16"><path d="M16.8.002h-1.989c-.498.001-.544.05-.544.554v14.742c0 .411.071.48.476.482h1.954c.613 0 .669-.054.669-.658V.551c-.001-.467-.087-.548-.566-.549zM3.772.003C3.167 0 2.561-.003 1.954.005c-.636.01-.987.372-.987 1.01v14.233c0 .419.056.475.476.475h1.851c.648-.005.973-.327.973-.972V.518C4.268.102 4.18.007 3.772.003zm8.859 15.36c-.176-1.756-.816-3.314-2.045-4.601a7.45 7.45 0 0 0-4.73-2.322c-.573-.011-.578-.011-.563.422.006.16.037.317.061.475.318 2.105 1.347 3.782 3.06 5.035 1.123.825 2.393 1.253 3.776 1.383.411.04.481.011.44-.392zM12.2.041c-.157.025-.32.016-.476.04-1.802.287-3.331 1.084-4.547 2.45a7.41 7.41 0 0 0-1.88 4.389c-.037.434-.013.435.444.494.627-.155 1.28-.249 1.88-.477C10.616 5.8 12.254 3.593 12.632.426c.048-.402-.019-.447-.432-.385zm16.07 7.435c-.046-1.748-1.04-2.917-2.721-3.331-1.865-.463-3.713-.192-5.552.2-.218.046-.308.203-.304.432l.002 1.233c0 .587.077.615.657.581l3.555-.118c.708 0 1.137.399 1.255 1.04.037.199.023.41.023.615.002.795.001.802-.783.793-1.096-.011-2.189.025-3.251.347-1.096.329-1.884.978-2.122 2.146a5.2 5.2 0 0 0 .047 2.274c.254 1.05.89 1.764 1.929 2.074 1.154.339 2.297.29 3.394-.241.314-.152.613-.339.964-.535l.028.221c.026.516.091.581.614.581h1.851c.359-.002.486-.116.484-.465l-.071-7.845zm-3.388 5.892c-.672.26-1.351.401-2.072.276-.448-.077-.777-.343-.816-.799a4.56 4.56 0 0 1 .072-1.252c.088-.434.407-.752.842-.807.71-.088 1.428-.107 2.143-.132.064-.002.185.152.191.241.023.353.01.708.01 1.062l.006.824c.036.317-.088.477-.377.588zM59.25 3.244v.09h.252v.735h.108v-.735h.252v-.09h-.612zm1.477 0h-.143l-.148.399-.086.278h-.001l-.084-.278-.14-.399h-.136l-.056.825h.101l.024-.355.016-.365h.002l.095.32.134.395h.08l.145-.402.103-.313h.002l.016.356.019.363h.108l-.052-.825zM47.883 8.256a9.18 9.18 0 0 0-.216-1.868c-.27-1.265-.995-2.157-2.328-2.389-1.455-.258-2.842-.052-4.09.795l-.455.289-.026-.553c-.01-.403-.079-.479-.485-.481a128.16 128.16 0 0 0-1.921.001c-.377.002-.489.12-.489.495v10.697c0 .419.113.534.523.536l2.127.006c.317.004.459-.121.453-.446l-.004-2.125.007-5.657c0-.156.041-.39.145-.455.787-.485 1.631-.782 2.57-.626.517.085.879.389.976.922.068.369.12.745.12 1.119l.007 6.722c0 .488.056.542.557.542h1.921c.553 0 .617-.061.617-.602l-.01-6.923zm10.916-.134a7.135 7.135 0 0 0-.072-1.06c-.214-1.367-.946-2.344-2.274-2.786a6.93 6.93 0 0 0-1.734-.351c-1.396-.088-2.776.079-4.142.387-.3.07-.426.233-.425.525v1.131c0 .607.084.654.674.623l3.524-.126c.758-.002 1.183.387 1.311 1.137.058.336.026.685.044 1.024.012.226-.095.3-.311.293-.492-.007-.989-.049-1.474.01-.834.098-1.679.194-2.485.42-1.069.301-1.762 1.048-1.937 2.173-.071.467-.059.951-.036 1.426.091 1.929 1.563 3.195 3.488 3.039.973-.075 1.889-.307 2.685-.901.054-.038.122-.06.197-.094.035.053.056.066.059.088a1.01 1.01 0 0 1 .02.173c.026.498.059.528.57.528h1.782c.479 0 .537-.054.537-.525l-.002-7.133zm-3.021 4.767c.008.218-.085.333-.276.419-.702.311-1.423.47-2.194.344-.555-.095-.88-.471-.871-1.169.018-1.186.279-1.722 1.722-1.832.431-.033.868.001 1.301-.008.244-.011.321.103.317.329l-.005.993.005.925zM36.58 4.335c.001-.306-.136-.437-.439-.425a4.36 4.36 0 0 0-2.42.841l-.344.243-.025-.36c-.01-.492-.096-.583-.577-.583l-1.852-.001c-.565.001-.659.092-.659.655v10.457c0 .506.112.619.593.619h1.955c.525 0 .609-.079.609-.621l-.005-7.613c0-.251.073-.393.303-.503.763-.359 1.545-.627 2.403-.593.314.013.466-.106.459-.438l-.001-1.679z"></path></svg> 