<?xml version="1.0" encoding="UTF-8" standalone="no"?> <svg xmlns="http://www.w3.org/2000/svg" version="1.0" width="337.000000pt" height="41.000000pt" viewBox="0 0 337.000000 41.000000" preserveAspectRatio="xMidYMid meet"><g transform="translate(0.000000,41.000000) scale(0.100000,-0.100000)" fill="#000000" stroke="none"><path d="M125 391 c-131 -61 -165 -222 -67 -324 52 -55 114 -73 194 -56 98 21 170 129 152 227 -24 132 -161 208 -279 153z m156 -74 c67 -45 77 -148 18 -206 -83 -83 -229 -25 -229 91 0 111 120 177 211 115z"></path><path d="M620 205 l0 -205 30 0 30 0 0 85 0 85 49 0 49 0 35 -82 c33 -76 38 -83 66 -86 17 -2 31 1 31 7 0 6 -14 45 -30 87 -31 76 -31 77 -10 91 47 33 63 108 35 163 -25 48 -61 60 -180 60 l-105 0 0 -205z m211 135 c14 -8 19 -21 19 -50 0 -50 -18 -60 -104 -60 l-66 0 0 60 0 60 66 0 c36 0 74 -5 85 -10z"></path><path d="M1180 204 l0 -205 33 3 32 3 3 203 2 202 -35 0 -35 0 0 -206z"></path><path d="M1645 401 c-97 -24 -167 -127 -150 -220 23 -125 143 -200 258 -162 46 15 112 88 126 137 21 75 23 74 -89 74 l-100 0 0 -35 0 -35 60 0 c33 0 60 -4 60 -9 0 -17 -68 -69 -99 -76 -41 -9 -110 24 -134 64 -37 63 -11 153 54 187 45 23 112 14 148 -20 18 -17 38 -26 59 -26 38 0 38 3 12 44 -35 58 -134 95 -205 77z"></path><path d="M2211 388 c-4 -13 -38 -103 -75 -201 -36 -97 -66 -180 -66 -183 0 -3 15 -4 32 -2 31 3 35 7 62 81 l29 77 57 0 57 0 29 -78 c27 -73 31 -77 62 -80 20 -2 32 1 32 9 0 9 -103 299 -135 382 -11 27 -73 23 -84 -5z m68 -155 c1 -8 -11 -13 -29 -13 -34 0 -36 7 -14 58 l16 37 13 -35 c8 -19 14 -41 14 -47z"></path><path d="M2660 206 l0 -206 30 0 29 0 3 156 3 157 45 -66 c41 -61 48 -67 80 -67 32 0 39 6 80 65 l45 64 5 -152 5 -152 30 0 30 0 3 203 2 202 -45 0 c-45 0 -45 0 -97 -75 -29 -41 -55 -75 -58 -75 -3 1 -28 33 -55 73 -48 68 -53 72 -93 75 l-42 3 0 -205z"></path><path d="M3292 208 l3 -203 33 -3 32 -3 0 205 0 206 -35 0 -35 0 2 -202z"></path></g></svg> 