<?xml version="1.0" encoding="UTF-8" standalone="no"?> <svg xmlns="http://www.w3.org/2000/svg" version="1.0" width="1151.000000pt" height="920.000000pt" viewBox="0 0 1151.000000 920.000000" preserveAspectRatio="xMidYMid meet"><g transform="translate(0.000000,920.000000) scale(0.100000,-0.100000)" fill="#000000" stroke="none"><path d="M3345 7889 c-142 -21 -292 -90 -423 -195 -126 -100 -266 -270 -253 -307 7 -18 118 -97 137 -97 6 0 39 33 73 74 44 54 76 82 114 100 93 45 199 44 259 -3 13 -11 44 -56 68 -101 73 -136 162 -194 297 -193 187 1 318 183 284 394 -38 236 -265 370 -556 328z"></path><path d="M2025 7481 c-11 -5 -29 -19 -41 -32 -44 -51 -49 -81 -48 -319 0 -254 13 -365 94 -860 27 -162 54 -342 61 -399 15 -137 6 -480 -16 -576 -44 -195 -108 -327 -212 -436 -40 -42 -73 -83 -73 -91 0 -33 27 -41 118 -35 252 16 553 126 764 277 297 213 551 618 614 980 22 132 15 380 -15 500 -39 154 -125 329 -228 463 -166 217 -497 444 -738 507 -89 23 -249 35 -280 21z"></path><path d="M1535 7464 c-365 -65 -677 -238 -888 -492 -180 -217 -307 -475 -352 -717 -26 -138 -17 -386 19 -520 36 -137 136 -338 230 -462 142 -188 355 -371 508 -434 136 -56 438 -124 492 -111 33 8 54 31 73 81 15 39 18 77 17 261 -1 244 -18 397 -104 919 -60 368 -77 566 -61 741 27 291 99 482 241 631 61 65 70 85 48 107 -16 16 -122 14 -223 -4z"></path><path d="M4445 4892 c-122 -42 -224 -129 -274 -235 -110 -230 -17 -489 214 -603 69 -34 87 -39 170 -42 146 -7 268 38 346 127 l39 44 0 -130 c0 -72 -5 -154 -10 -184 -26 -135 -112 -249 -218 -289 -111 -43 -293 -11 -373 66 l-25 24 -40 -41 -39 -41 35 -30 c50 -42 101 -66 187 -89 273 -69 503 69 568 343 12 51 15 150 15 521 l0 457 85 0 85 0 0 55 0 55 -124 0 -123 0 -7 -31 c-3 -17 -6 -58 -6 -91 l0 -60 -47 52 c-56 63 -102 93 -182 120 -77 26 -205 27 -276 2z m288 -115 c76 -34 149 -110 178 -184 34 -85 32 -198 -3 -275 -34 -72 -103 -142 -176 -176 -49 -23 -70 -27 -152 -27 -84 0 -102 3 -152 28 -34 17 -77 50 -107 82 -170 186 -95 482 143 567 75 27 192 20 269 -15z"></path><path d="M6295 4896 c-88 -28 -159 -76 -215 -148 l-37 -46 -7 60 c-3 34 -6 78 -6 99 l0 39 -125 0 -125 0 0 -55 0 -55 85 0 85 0 -2 -332 -3 -333 -87 -3 -88 -3 0 -49 0 -50 225 0 225 0 0 50 0 50 -85 0 -85 0 0 224 0 224 33 63 c22 44 48 75 82 101 51 39 154 78 205 78 27 0 28 3 32 50 l3 50 -35 -1 c-19 0 -53 -6 -75 -13z"></path><path d="M9125 4896 c-91 -29 -167 -82 -217 -153 l-33 -45 -5 98 -5 99 -125 0 -125 0 0 -50 0 -50 83 -3 82 -3 0 -334 0 -335 -90 0 -90 0 0 -50 0 -50 225 0 225 0 0 50 0 49 -82 3 -83 3 0 225 0 225 27 51 c59 112 174 178 314 178 71 1 85 -2 121 -26 24 -16 49 -44 62 -70 20 -42 21 -60 21 -316 l0 -272 -90 0 -90 0 0 -50 0 -50 225 0 225 0 0 50 0 49 -82 3 -83 3 -3 179 c-4 258 12 321 100 408 56 54 134 88 224 95 100 9 165 -23 207 -100 21 -40 22 -52 22 -312 l0 -270 -87 -3 -88 -3 0 -49 0 -50 225 0 225 0 0 50 0 50 -84 0 -85 0 -3 298 c-3 260 -5 302 -21 337 -25 55 -73 103 -132 131 -139 66 -378 -3 -470 -135 -15 -23 -29 -40 -31 -38 -2 1 -16 27 -31 57 -32 61 -93 114 -151 130 -50 14 -178 12 -227 -4z"></path><path d="M11149 4897 c-109 -41 -161 -106 -167 -209 -5 -86 1 -109 40 -153 38 -44 94 -73 210 -110 57 -18 100 -38 125 -60 37 -32 38 -35 38 -100 0 -67 0 -68 -43 -106 -25 -21 -59 -41 -79 -45 -47 -9 -162 1 -195 16 -26 12 -28 17 -28 77 l0 63 -50 0 -50 0 0 -94 0 -94 33 -20 c88 -55 273 -73 357 -35 103 46 160 131 160 240 0 133 -57 189 -260 259 -110 38 -160 82 -160 142 0 55 17 88 55 112 48 30 112 35 178 16 l57 -17 0 -64 0 -65 50 0 50 0 0 88 c0 74 -3 92 -19 106 -54 49 -231 80 -302 53z"></path><path d="M6960 4845 l0 -55 85 0 85 0 0 -284 c0 -306 4 -335 56 -403 124 -162 462 -111 584 90 l20 32 0 -102 0 -103 131 0 130 0 -3 48 -3 47 -82 3 -83 3 0 390 0 390 -132 -3 -133 -3 -3 -52 -3 -53 86 0 86 0 -3 -227 -3 -228 -30 -54 c-56 -101 -160 -162 -290 -169 -107 -5 -157 20 -197 97 l-28 53 0 319 0 319 -135 0 -135 0 0 -55z"></path><path d="M805 4766 c-225 -76 -380 -160 -464 -251 -90 -97 -138 -253 -128 -410 15 -234 179 -430 468 -557 133 -59 213 -74 619 -118 645 -70 731 -80 878 -105 345 -60 583 -140 738 -251 167 -118 304 -408 304 -644 0 -173 -60 -310 -195 -446 -193 -196 -498 -350 -827 -416 -100 -20 -141 -23 -353 -23 -223 1 -249 3 -370 28 -307 65 -534 171 -751 348 -186 152 -268 293 -244 421 13 64 40 111 125 213 89 106 115 158 115 233 0 112 -73 217 -188 270 -118 54 -285 10 -400 -105 -32 -32 -65 -79 -85 -120 -31 -66 -32 -72 -31 -193 0 -109 4 -136 28 -210 70 -211 202 -416 386 -600 141 -142 227 -203 405 -290 216 -105 422 -170 656 -207 172 -27 558 -25 729 5 725 124 1258 539 1401 1089 31 117 34 363 6 493 -67 312 -230 567 -460 721 -107 72 -161 100 -278 145 -278 107 -654 157 -1354 179 -460 14 -685 47 -819 118 -69 37 -110 87 -132 165 -22 75 -8 122 54 182 93 89 257 150 528 195 87 15 160 28 162 30 8 8 -10 25 -27 25 -33 0 -177 42 -277 81 -55 21 -104 39 -110 39 -5 0 -54 -16 -109 -34z"></path></g></svg> 