<?xml version="1.0" encoding="UTF-8"?> <svg xmlns="http://www.w3.org/2000/svg" width="117" height="120"><path d="m3.853 69.207.278 1.622c.212 1.239-.425 2.214-1.569 2.405S.492 72.722.28 71.483L0 69.875l3.853-.667zM.752 71.378c.164.951.851 1.463 1.715 1.314s1.342-.858 1.179-1.804l-.177-1.04-2.894.496.177 1.034zm1.942 8.033-.466.137-.797-2.721 3.749-1.099.776 2.646-.466.137-.619-2.104-1.151.338.552 1.88-.451.132-.552-1.88-1.21.355.636 2.18zm4.312 1.855.204.52-3.638 1.428-.204-.519 3.638-1.43zm3.005 6.516L6.53 89.556l-.209-.409 1.533-3.411-2.596 1.321-.254-.498 3.483-1.772.207.407-1.533 3.412 2.598-1.323.253.498zm3.707 5.799.331.451-3.157 2.315-.331-.451 3.157-2.315zm4.567 5.531-2.918 2.602-.301-.343.61-3.687-2.175 1.938-.371-.418 2.918-2.6.301.341-.615 3.69 2.177-1.939.374.416zm2.28 2.266 1.237 1.087c.944.83 1.061 1.989.301 2.856s-1.932.902-2.876.074l-1.237-1.088 2.575-2.929zm-1.052 3.635c.726.639 1.581.601 2.16-.055s.505-1.513-.221-2.15l-.792-.696-1.939 2.205.792.696zm6.216.609.451.328-2.291 3.165-.451-.326 2.291-3.167zm6.041 3.872-3.468 2.485-.475-.281.516-4.244.519.301-.428 3.478 2.856-2.036.481.297zm2.316 1.152.504.24-1.682 3.525-.503-.24 1.682-3.525zm3.482 1.564 1.548.566c1.18.43 1.711 1.467 1.314 2.555s-1.472 1.544-2.652 1.114l-1.548-.564 1.338-3.671zm.344 3.769c.902.331 1.693-.014 1.993-.837s-.083-1.591-.985-1.921l-.992-.363-1.004 2.76.988.361zm5.436.475.501-2.165.544.127-.496 2.142c-.195.843.102 1.312.788 1.471s1.165-.132 1.353-.974l.496-2.142.528.122-.501 2.165c-.255 1.103-.994 1.545-1.999 1.312s-1.469-.955-1.213-2.058zm9.306 2.828-.056.482-2.818-.323.451-3.883 2.736.314-.056.483-2.186-.251-.137 1.193 1.954.223-.054.472-1.954-.224-.15 1.253 2.27.261zm3.375-3.238.558.009-.056 3.427 2.115.033-.008.487-2.674-.044.065-3.912zm5.386-.085.556-.046.289 3.417 2.104-.179.041.484-2.665.225-.325-3.901zm8.772 2.222.092.477-2.797.53-.73-3.84 2.706-.516.09.478-2.151.412.224 1.18 1.927-.367.089.466-1.927.367.236 1.24 2.243-.427zm5.882-1.106-1.159-.902-.231.083-.923.284.349 1.136-.532.164-1.148-3.735 1.457-.451c.971-.301 1.709.012 1.954.823a1.23 1.23 0 0 1-.46 1.431l1.272.982-.577.185zm-.764-2.428c-.164-.533-.615-.727-1.299-.518l-.902.279.516 1.681.902-.278c.684-.217.947-.636.783-1.17v.006zm9.513-3.517.475-.248.705 1.353c-.22.488-.602.886-1.082 1.124-1.064.555-2.237.213-2.77-.81s-.14-2.18.933-2.739c.241-.14.51-.227.788-.254a1.96 1.96 0 0 1 .822.095l-.15.466a1.55 1.55 0 0 0-.62-.063 1.54 1.54 0 0 0-.595.186c-.801.418-1.09 1.279-.687 2.05s1.272 1.031 2.068.615a1.64 1.64 0 0 0 .696-.645l-.583-1.13zm6.528-2.323.271.403-2.354 1.583-2.18-3.244 2.289-1.539.271.403-1.826 1.228.671.995 1.626-1.093.265.394-1.627 1.093.704 1.052 1.891-1.275zm2.395-1.754-.12-.466a2.003 2.003 0 0 0 1.279-.48c.519-.431.573-.819.355-1.08-.612-.732-2.041 1.246-2.972.132-.386-.461-.355-1.156.433-1.814a2.3 2.3 0 0 1 1.186-.54l.15.461a2.04 2.04 0 0 0-1.027.442c-.51.426-.549.823-.331 1.084.612.732 2.044-1.243 2.964-.141.382.451.343 1.159-.451 1.822-.463.38-1.042.603-1.467.58zm3.385-4.965c-.83-.804-.822-2.025 0-2.879a1.93 1.93 0 0 1 1.47-.645v.507a1.43 1.43 0 0 0-.599.115 1.44 1.44 0 0 0-.498.353 1.496 1.496 0 0 0-.347.493 1.5 1.5 0 0 0-.125.591 1.52 1.52 0 0 0 .117.592c.078.188.195.357.341.498a1.5 1.5 0 0 0 .509.324c.19.072.393.106.596.098a1.51 1.51 0 0 0 .586-.145c.184-.087.348-.211.482-.364a1.44 1.44 0 0 0 .334-.511c.074-.192.105-.398.093-.604l.505-.016a1.933 1.933 0 0 1-.601 1.503c-.812.845-2.031.893-2.862.09zm4.963-8.746 3.105 2.372-.34.451-1.383-1.052-1.364 1.781 1.385 1.052-.34.443-3.104-2.374.34-.451 1.335 1.021 1.363-1.783-1.335-1.019.338-.442zm7.005-3.831-2.466-1.422 1.345 2.405-.129.223-2.747.042 2.449 1.418-.269.465-3.381-1.954.23-.397 3.193-.033-1.569-2.767.228-.397 3.384 1.954-.268.465zm1.959-6.459-.812 1.912.732.779-.224.529-2.907-3.157.215-.51 4.293-.107-.23.54-1.067.014zm-.487 0-2.092.027 1.434 1.526.658-1.553zm.809-3.656c-1.108-.329-1.664-1.415-1.326-2.555a1.93 1.93 0 0 1 .367-.735 1.92 1.92 0 0 1 .639-.516l.234.451a1.463 1.463 0 0 0-.475.381 1.46 1.46 0 0 0-.277.542 1.505 1.505 0 0 0 .081 1.181 1.5 1.5 0 0 0 .91.756c.195.058.4.076.602.052a1.51 1.51 0 0 0 1.027-.589c.123-.163.21-.348.259-.546a1.46 1.46 0 0 0-.135-1.189l.44-.247a1.93 1.93 0 0 1 .164 1.604c-.344 1.132-1.404 1.738-2.51 1.409zm2.137-7.627.589.83.996.177-.098.55-3.848-.686.099-.549 2.148.382-1.777-2.471.111-.627 1.439 1.954 2.428-1.372-.115.643-1.972 1.168zM3.734 45.039c-2.497-.902-3.629-3.457-2.706-6.031.469-1.303 1.324-2.276 2.471-2.733l.477 1.052a3.33 3.33 0 0 0-1.858 2.012c-.687 1.906.177 3.812 2.046 4.487s3.758-.239 4.442-2.145a3.34 3.34 0 0 0-.15-2.74l1.043-.51c.589 1.085.639 2.384.164 3.698-.924 2.563-3.433 3.811-5.929 2.909zm4.511-11.325c-2.201-1.434-2.737-4.209-1.233-6.512 1.491-2.286 4.23-2.919 6.441-1.476s2.739 4.209 1.248 6.489-4.255 2.936-6.456 1.499zm4.51-6.915c-1.665-1.085-3.701-.637-4.786 1.027s-.687 3.729.977 4.81 3.701.637 4.8-1.052.673-3.699-.991-4.785zm2.674-8.15 2.178 2.246 3.23-3.131.767.791-3.23 3.133 2.525 2.604-.918.893-6.246-6.443 4.546-4.407.777.801-3.629 3.514zm9.079-7.567 1.691 2.63 3.785-2.434.601.927-3.785 2.434 1.954 3.051-1.078.693-4.852-7.548 5.327-3.424.601.938-4.245 2.731zm17.72-1.226.4 1.04-6.076 2.339-3.226-8.374 5.909-2.274.4 1.042-4.713 1.813.992 2.572 4.199-1.616.391 1.018-4.198 1.616 1.04 2.706 4.882-1.88zm10.73-2.118.176 1.102-6.431 1.027L45.288.998 51.542 0l.176 1.1-4.98.804.434 2.722 4.443-.71.173 1.076-4.449.71.451 2.856 5.168-.821zm12.638-6.349-.483 3.097 4.445.694-.17 1.088-4.445-.693-.559 3.57-1.263-.191L64.505.086l6.256.977-.173 1.102-4.992-.776zm8.447 5.058c.969-2.441 3.576-3.516 6.138-2.498 2.537 1.009 3.699 3.567 2.724 6.022s-3.576 3.516-6.114 2.507c-2.561-1.018-3.719-3.588-2.748-6.031zm7.666 3.05c.734-1.847-.108-3.758-1.954-4.489-1.871-.743-3.793.066-4.526 1.912s.108 3.758 1.978 4.498c1.849.733 3.773-.075 4.507-1.921h-.005zm7.916 10.171v-3.367L89.149 16l-1.813-1.278-1.572 2.234-1.052-.738 5.168-7.345 2.856 2.013c1.907 1.344 2.381 3.119 1.26 4.712-.797 1.132-1.954 1.536-3.244 1.18v3.689l-1.126-.8zm3.332-4.81c.738-1.052.451-2.139-.885-3.085l-1.783-1.254-2.324 3.307 1.783 1.254c1.341.943 2.471.83 3.209-.222zm9.444 19.352 5.392-3.693-6.327.391-.333-.487 2.642-5.727-5.368 3.662-.693-1.016 7.41-5.055.593.867-3.1 6.646 7.289-.503.592.867-7.404 5.067-.693-1.018zm6.002 11.051-1.052.389-2.273-6.103 8.409-3.131 2.209 5.935-1.052.389-1.748-4.733-2.583.962 1.57 4.216-1.021.38-1.571-4.217-2.715 1.012 1.827 4.9zM2.474 58.737A2.04 2.04 0 0 0 4.511 56.7a2.04 2.04 0 0 0-2.037-2.037A2.04 2.04 0 0 0 .437 56.7a2.04 2.04 0 0 0 2.037 2.037zm111.646 0a2.037 2.037 0 0 0 0-4.074 2.04 2.04 0 0 0-2.037 2.037 2.04 2.04 0 0 0 2.037 2.037zm-22.915.778a6.795 6.795 0 0 0-7.215 4.335c-3.127 8.117-8.568 13.9-16.161 17.171-5.562 2.405-10.345 2.512-10.655 2.516-9.312-.247-16.721-3.203-22.02-8.789-4.687-4.941-6.859-11.068-7.857-15.333a11.05 11.05 0 0 1 .119-5.509c2.193-1.175 15.423-7.666 27.878-.824a25.854 25.854 0 0 0 12.618 3.242c8.066 0 14.731-3.546 17.275-5.111a1.69 1.69 0 0 1 .237.801c0 1.258-2.08 3.369-7.943 5.183-5.733 1.774-13.379 2.752-21.551 2.758v-.011l-.407.009a100.17 100.17 0 0 1-6.274-.216c-4.209-.313-9.941-1.052-15.722-2.755a1.8 1.8 0 0 0-1.374.139 1.81 1.81 0 0 0-.874 1.07 1.8 1.8 0 0 0 .139 1.374 1.81 1.81 0 0 0 1.07.874c10.389 3.078 20.398 3.035 22.969 2.999h.601c8.459-.017 16.424-1.052 22.452-2.915 6.803-2.104 10.401-5.049 10.401-8.516s-3.597-6.41-10.401-8.516a47.91 47.91 0 0 0-1.386-.401l-.041-.009c-3.457-.952-7.478-1.654-11.803-2.061-6.614-.779-11.214-.633-13.553-.451l-1.73.128a70.917 70.917 0 0 0-14.766 2.796c-4.642 1.437-7.791 3.265-9.32 5.383a6.34 6.34 0 0 0-.528.867 14.53 14.53 0 0 0-1.484 10.459c2.279 9.754 9.622 26.205 33.21 26.82h.045c.224 0 5.542-.032 11.91-2.74 5.886-2.504 13.82-7.866 18.178-19.182a3.305 3.305 0 0 1 1.384-1.674 3.31 3.31 0 0 1 2.124-.454c4.107.535 4.51 2.791 4.452 4.443-.117 3.469-2.65 6.33-6.013 7.085a1.75 1.75 0 0 0-1.326 2.085 1.75 1.75 0 0 0 .768 1.095c.391.249.865.332 1.317.231 4.893-1.093 8.568-5.291 8.747-10.372.147-4.463-2.582-7.385-7.492-8.026zM36.266 46.826a66.95 66.95 0 0 1 13.963-2.656c1.785-.072 3.66-.109 5.627-.11h.174a121.51 121.51 0 0 1 20.35 2.435l1.1.323c2.231.69 3.908 1.422 5.141 2.135-4.186 2.34-15.095 7.164-25.775 1.293-9.32-5.126-18.766-3.717-24.83-1.772a28.237 28.237 0 0 1 4.25-1.648z"></path></svg> 