<?xml version="1.0" encoding="UTF-8"?> <svg xmlns="http://www.w3.org/2000/svg" width="106" height="18" fill="none"><path d="M42.706 13.68V9.446c0-1.619-.986-2.68-2.68-2.68-.847 0-1.767.279-2.4 1.2-.493-.773-1.2-1.2-2.261-1.2-.707 0-1.414.214-1.973.986v-.847h-1.48v6.773h1.48v-3.74c0-1.2.633-1.767 1.619-1.767s1.48.633 1.48 1.767v3.74h1.48v-3.74c0-1.2.707-1.767 1.619-1.767.986 0 1.48.633 1.48 1.767v3.74h1.636zm21.947-6.773h-2.4V4.86h-1.48v2.047h-1.34v1.34h1.34v3.107c0 1.554.633 2.466 2.326 2.466a3.98 3.98 0 0 0 1.833-.493l-.428-1.274c-.427.28-.921.354-1.274.354-.707 0-.986-.427-.986-1.126V8.246h2.4v-1.34h.008zm12.56-.148c-.847 0-1.414.427-1.767.986v-.847h-1.48v6.773h1.48V9.857c0-1.126.493-1.767 1.414-1.767.279 0 .633.074.921.14l.427-1.414c-.296-.058-.715-.058-.995-.058zm-18.98.707c-.707-.493-1.693-.707-2.754-.707-1.693 0-2.819.847-2.819 2.187 0 1.126.847 1.767 2.326 1.973l.707.074c.773.14 1.2.354 1.2.707 0 .493-.567.847-1.554.847a3.9 3.9 0 0 1-2.261-.707l-.707 1.126c.773.567 1.833.847 2.893.847 1.973 0 3.107-.921 3.107-2.187 0-1.2-.921-1.833-2.326-2.047l-.707-.074c-.633-.074-1.126-.214-1.126-.633 0-.493.493-.773 1.274-.773.847 0 1.693.353 2.121.567l.625-1.2zm39.366-.707c-.847 0-1.414.427-1.767.986v-.847h-1.48v6.773h1.48V9.857c0-1.126.493-1.767 1.414-1.767.279 0 .633.074.921.14l.427-1.397c-.288-.074-.707-.074-.995-.074zm-18.906 3.535c0 2.047 1.414 3.526 3.6 3.526.986 0 1.693-.214 2.4-.773l-.707-1.2c-.567.427-1.126.633-1.767.633-1.2 0-2.047-.847-2.047-2.187 0-1.274.847-2.121 2.047-2.186.633 0 1.2.214 1.767.633l.707-1.2c-.707-.567-1.414-.773-2.4-.773-2.187-.008-3.6 1.48-3.6 3.526zm13.686 0V6.906H90.9v.847c-.493-.633-1.2-.986-2.121-.986-1.907 0-3.387 1.48-3.387 3.526s1.48 3.526 3.387 3.526c.986 0 1.693-.353 2.121-.986v.847h1.48v-3.387zm-5.433 0c0-1.2.773-2.186 2.047-2.186 1.2 0 2.047.921 2.047 2.186 0 1.2-.847 2.187-2.047 2.187-1.266-.074-2.047-.995-2.047-2.187zM69.24 6.758c-1.973 0-3.387 1.414-3.387 3.526 0 2.121 1.414 3.526 3.461 3.526.986 0 1.973-.28 2.754-.921l-.707-1.06c-.567.427-1.274.707-1.973.707-.921 0-1.833-.427-2.047-1.619h5.006v-.567c.066-2.178-1.208-3.592-3.107-3.592zm0 1.274c.921 0 1.553.567 1.693 1.619h-3.526c.14-.912.773-1.619 1.833-1.619zm36.76 2.26V4.227h-1.479v3.526c-.494-.633-1.2-.986-2.121-.986-1.907 0-3.387 1.48-3.387 3.526s1.48 3.526 3.387 3.526c.986 0 1.693-.353 2.121-.986v.847H106v-3.387zm-5.433 0c0-1.2.772-2.186 2.047-2.186 1.2 0 2.046.921 2.046 2.186 0 1.2-.846 2.187-2.046 2.187-1.275-.074-2.047-.995-2.047-2.187zm-49.534 0V6.906h-1.48v.847c-.493-.633-1.2-.986-2.121-.986-1.907 0-3.387 1.48-3.387 3.526s1.48 3.526 3.387 3.526c.986 0 1.693-.353 2.121-.986v.847h1.48v-3.387zm-5.499 0c0-1.2.773-2.186 2.047-2.186 1.2 0 2.047.921 2.047 2.186 0 1.2-.847 2.187-2.047 2.187-1.274-.074-2.047-.995-2.047-2.187z" fill="#000"></path><path d="M17.451 2.318h-7.438v13.363h7.438V2.318z" fill="#ff5a00"></path><path d="M10.508 9a8.523 8.523 0 0 1 3.235-6.682A8.456 8.456 0 0 0 8.5.5C3.802.5 0 4.302 0 9s3.802 8.5 8.5 8.5a8.456 8.456 0 0 0 5.243-1.818A8.485 8.485 0 0 1 10.508 9z" fill="#eb001b"></path><path d="M27.486 9c0 4.698-3.802 8.5-8.5 8.5a8.456 8.456 0 0 1-5.243-1.818c1.983-1.56 3.235-3.967 3.235-6.682s-1.276-5.125-3.235-6.682A8.44 8.44 0 0 1 18.984.5c4.701 0 8.503 3.826 8.503 8.5z" fill="#f79e1b"></path></svg> 