<?xml version="1.0" encoding="UTF-8"?> <svg xmlns="http://www.w3.org/2000/svg" width="27" height="24" fill="#fff"><path d="M26.016 10.963H21.81V4.68A4.19 4.19 0 0 0 17.63.5H4.278a4.19 4.19 0 0 0-4.18 4.18v8.072a4.184 4.184 0 0 0 4.18 4.18h10.814v2.103c0 .268.13.523.347.677l5.046 3.628a.846.846 0 0 0 .489.159.82.82 0 0 0 .485-.159l5.046-3.628a.836.836 0 0 0 .347-.677v-7.236a.84.84 0 0 0-.836-.836zm-18.574 2.63H4.278a.84.84 0 0 1-.836-.836c0-.464.376-.836.836-.836h3.164c.464 0 .836.372.836.836s-.372.836-.836.836zm12.696-7.6v1.735H1.77V5.993h18.368zm5.041 12.612-4.205 3.026-4.21-3.026v-5.969h8.415v5.97zm-7.16-3.879v2.809a.84.84 0 0 0 .347.681l2.119 1.522a.84.84 0 0 0 .489.155c.171 0 .343-.05.485-.155l2.119-1.522a.84.84 0 0 0 .347-.681v-2.809a.84.84 0 0 0-.836-.836h-4.235a.84.84 0 0 0-.836.836z"></path></svg> 