<?xml version="1.0" encoding="UTF-8"?> <svg xmlns="http://www.w3.org/2000/svg" width="80" height="20" fill="none"><path d="M61.275 5.217h-4.224c-.248 0-.497.248-.621.497l-1.739 10.932c0 .248.124.373.373.373H57.3c.248 0 .373-.124.373-.373l.497-3.106c0-.248.248-.497.621-.497h1.367c2.857 0 4.472-1.367 4.845-4.099.248-1.118 0-2.112-.497-2.733-.745-.621-1.863-.994-3.23-.994zm.497 4.099c-.248 1.491-1.366 1.491-2.484 1.491h-.745l.497-2.857c0-.124.124-.248.373-.248h.248c.745 0 1.491 0 1.863.497.248.124.248.497.248 1.118z" fill="#139ad6"></path><path d="M30.841 5.217h-4.224c-.248 0-.497.248-.621.497l-1.739 10.932c0 .248.124.373.373.373h1.988c.248 0 .497-.248.621-.497l.497-2.981c0-.248.248-.497.621-.497h1.366c2.857 0 4.472-1.367 4.845-4.099.248-1.118 0-2.112-.497-2.733-.745-.621-1.739-.994-3.23-.994zm.497 4.099c-.248 1.491-1.366 1.491-2.484 1.491h-.621l.497-2.857c0-.124.124-.248.373-.248h.248c.745 0 1.491 0 1.863.497.124.124.248.497.124 1.118zm12.298-.124h-1.988c-.124 0-.373.124-.373.248l-.124.621-.124-.248c-.497-.621-1.366-.87-2.36-.87-2.236 0-4.224 1.739-4.596 4.099-.248 1.242.124 2.36.745 3.106s1.491.994 2.609.994c1.863 0 2.857-1.118 2.857-1.118l-.124.621c0 .248.124.373.373.373h1.863c.248 0 .497-.248.621-.497l1.118-6.957c-.124-.124-.373-.373-.497-.373zm-2.857 3.975c-.248 1.118-1.118 1.987-2.36 1.987-.621 0-1.118-.248-1.366-.497-.248-.373-.373-.869-.373-1.491.124-1.118 1.118-1.988 2.236-1.988.621 0 .994.248 1.367.497.373.373.497.994.497 1.491z" fill="#263b80"></path><path d="M73.946 9.192h-1.988c-.124 0-.373.124-.373.248l-.124.621-.124-.248c-.497-.621-1.367-.87-2.36-.87-2.236 0-4.224 1.739-4.596 4.099-.249 1.242.124 2.36.745 3.106s1.491.994 2.609.994c1.863 0 2.857-1.118 2.857-1.118l-.124.621c0 .248.124.373.373.373h1.863c.248 0 .497-.248.621-.497l1.118-6.957c-.124-.124-.249-.373-.497-.373zm-2.857 3.975c-.248 1.118-1.118 1.987-2.36 1.987-.621 0-1.118-.248-1.366-.497-.248-.373-.373-.869-.373-1.491.124-1.118 1.118-1.988 2.236-1.988.621 0 .994.248 1.367.497.497.373.621.994.497 1.491z" fill="#139ad6"></path><path d="M54.443 9.193h-2.112c-.248 0-.373.124-.497.248l-2.733 4.224-1.242-3.975c-.124-.248-.248-.373-.621-.373H45.25c-.248 0-.373.248-.373.497l2.236 6.584-2.112 2.981c-.124.248 0 .621.248.621h1.988c.248 0 .373-.124.497-.248l6.832-9.814c.373-.373.124-.745-.124-.745z" fill="#263b80"></path><path d="m76.307 5.59-1.739 11.18c0 .248.124.373.373.373h1.739c.248 0 .497-.248.621-.497L79.04 5.714c0-.248-.124-.373-.373-.373h-1.988c-.124-.124-.248 0-.373.248z" fill="#139ad6"></path><path d="M15.064 1.491C14.195.497 12.58 0 10.344 0H4.132c-.373 0-.745.373-.87.745L.778 17.019c0 .373.248.621.497.621h3.851l.994-6.087v.248c.124-.373.497-.745.87-.745h1.863c3.603 0 6.335-1.491 7.205-5.59v-.373c-.124 0-.124 0 0 0 .124-1.615-.124-2.609-.994-3.602z" fill="#263b80"></path><path d="M15.934 5.093v.373c-.87 4.224-3.603 5.59-7.205 5.59H6.866c-.373 0-.745.373-.87.745l-1.242 7.578c0 .248.124.497.497.497h3.23c.373 0 .745-.248.745-.621v-.124l.621-3.851v-.248c0-.373.373-.621.745-.621h.497c3.106 0 5.59-1.242 6.211-4.969.248-1.491.124-2.857-.621-3.727a1.273 1.273 0 0 0-.745-.621z" fill="#139ad6"></path><path d="M15.064 4.721c-.124 0-.248-.124-.373-.124s-.248 0-.373-.124c-.497-.124-.994-.124-1.615-.124H7.859c-.124 0-.248 0-.373.124a.684.684 0 0 0-.373.621l-.994 6.46v.248c.124-.373.497-.745.87-.745h1.863c3.602 0 6.335-1.491 7.205-5.59 0-.124 0-.248.124-.373-.249-.124-.373-.248-.621-.248-.373-.124-.373-.124-.497-.124z" fill="#232c65"></path></svg> 