<?xml version="1.0" encoding="UTF-8"?> <svg xmlns="http://www.w3.org/2000/svg" width="27" height="20" fill="#fff"><path d="M1.737 14.306.159 4.045a.85.85 0 0 1 .072-.494.857.857 0 0 1 .819-.491.85.85 0 0 1 .469.17l4.919 3.689a1.167 1.167 0 0 0 .903.218 1.18 1.18 0 0 0 .442-.173c.134-.087.249-.201.337-.333L12.215.485a1.09 1.09 0 0 1 .393-.356 1.09 1.09 0 0 1 1.03 0 1.09 1.09 0 0 1 .393.356l4.095 6.142a1.175 1.175 0 0 0 1.682.288l4.919-3.689a.86.86 0 0 1 .469-.17.85.85 0 0 1 .484.121.86.86 0 0 1 .407.864l-1.579 10.261-22.772.003zm0 1.898H24.51v2.608c0 .156-.031.31-.09.454a1.19 1.19 0 0 1-.643.643 1.18 1.18 0 0 1-.454.09H2.925a1.19 1.19 0 0 1-1.188-1.188v-2.608z"></path></svg> 