<?xml version="1.0" encoding="UTF-8"?> <svg xmlns="http://www.w3.org/2000/svg" xmlns:xlink="http://www.w3.org/1999/xlink" width="1300" zoomAndPan="magnify" viewBox="0 0 974.88 374.999991" height="500" preserveAspectRatio="xMidYMid meet" version="1.0"><path fill="#000000" d="M 260.734375 181.914062 L 261.257812 177.46875 L 261.257812 146.082031 L 260.734375 141.636719 L 264.394531 138.761719 L 274.070312 129.082031 L 276.164062 126.207031 L 321.667969 126.207031 L 323.757812 129.082031 L 333.433594 138.761719 L 337.097656 141.636719 L 336.574219 146.082031 L 336.574219 154.453125 L 337.097656 158.246094 L 311.730469 164.390625 L 312.253906 160.207031 L 312.253906 155.105469 L 307.675781 150.53125 L 290.152344 150.53125 L 285.578125 155.105469 L 285.578125 168.445312 L 290.023438 172.890625 L 321.796875 172.890625 L 323.890625 175.765625 L 333.566406 185.445312 L 337.226562 188.320312 L 336.703125 192.765625 L 336.703125 226.636719 L 337.226562 231.082031 L 333.566406 233.957031 L 323.890625 243.636719 L 321.796875 246.511719 L 276.164062 246.511719 L 274.070312 243.636719 L 264.394531 233.957031 L 260.734375 231.082031 L 261.257812 226.636719 L 261.257812 216.957031 L 260.734375 213.167969 L 286.101562 207.019531 L 285.578125 211.203125 L 285.578125 218.265625 L 290.152344 222.84375 L 307.804688 222.84375 L 312.382812 218.265625 L 312.382812 201.660156 L 307.804688 197.082031 L 275.769531 197.082031 L 273.679688 194.207031 L 264.394531 184.921875 Z M 260.734375 181.914062 " fill-opacity="1" fill-rule="nonzero"></path><path fill="#000000" d="M 418.820312 243.503906 L 416.726562 246.382812 L 370.046875 246.382812 L 367.957031 243.503906 L 358.277344 233.828125 L 354.617188 230.949219 L 355.140625 226.503906 L 355.140625 133.136719 L 351.742188 126.335938 L 382.730469 126.335938 L 379.332031 133.136719 L 379.332031 218.136719 L 384.039062 222.710938 L 402.476562 222.710938 L 407.050781 218.136719 L 407.050781 133.136719 L 403.652344 126.335938 L 434.640625 126.335938 L 431.242188 133.136719 L 431.242188 226.503906 L 431.765625 230.949219 L 428.367188 233.828125 Z M 418.820312 243.503906 " fill-opacity="1" fill-rule="nonzero"></path><path fill="#000000" d="M 482.105469 246.382812 L 450.855469 246.382812 L 454.253906 239.582031 L 454.253906 133.269531 L 450.855469 126.46875 L 514.664062 126.46875 L 516.757812 129.34375 L 526.695312 139.414062 L 530.09375 142.03125 L 529.574219 146.476562 L 529.574219 188.320312 L 530.09375 192.765625 L 526.433594 195.644531 L 516.496094 205.320312 L 514.535156 207.9375 L 488.121094 207.9375 L 478.578125 184.527344 L 500.675781 184.527344 L 505.25 179.820312 L 505.25 155.5 L 500.675781 150.921875 L 478.578125 150.921875 L 478.578125 239.710938 Z M 482.105469 246.382812 " fill-opacity="1" fill-rule="nonzero"></path><path fill="#000000" d="M 623.066406 141.898438 L 622.542969 146.34375 L 622.542969 188.191406 L 623.066406 192.636719 L 619.402344 195.511719 L 610.640625 204.144531 L 621.625 239.582031 L 625.417969 246.382812 L 596.257812 246.382812 L 597.566406 239.582031 L 588.019531 207.9375 L 571.414062 207.9375 L 571.414062 239.582031 L 574.816406 246.382812 L 543.5625 246.382812 L 546.964844 239.582031 L 546.964844 133.269531 L 543.5625 126.46875 L 607.636719 126.46875 L 609.726562 129.34375 L 619.664062 139.414062 Z M 571.675781 184.398438 L 593.773438 184.398438 L 598.351562 179.691406 L 598.351562 153.539062 L 593.773438 148.960938 L 571.675781 148.960938 Z M 571.675781 184.398438 " fill-opacity="1" fill-rule="nonzero"></path><path fill="#000000" d="M 668.570312 222.710938 L 704.917969 222.710938 L 711.71875 219.3125 L 708.449219 246.382812 L 640.585938 246.382812 L 643.984375 239.582031 L 643.984375 133.269531 L 640.585938 126.46875 L 704.003906 126.46875 L 707.273438 153.667969 L 700.472656 150.269531 L 668.4375 150.269531 L 668.4375 174.066406 L 686.480469 174.066406 L 693.28125 170.667969 L 693.28125 201.398438 L 686.480469 197.996094 L 668.4375 197.996094 L 668.4375 222.710938 Z M 668.570312 222.710938 " fill-opacity="1" fill-rule="nonzero"></path><path fill="#000000" d="M 829.664062 246.382812 L 798.671875 246.382812 L 802.074219 239.582031 L 802.074219 177.46875 L 785.335938 239.710938 L 787.035156 246.382812 L 762.84375 246.382812 L 764.414062 240.105469 L 746.109375 177.46875 L 746.109375 239.582031 L 749.507812 246.382812 L 722.046875 246.382812 L 725.449219 239.582031 L 725.449219 133.269531 L 722.046875 126.46875 L 752.515625 126.46875 L 776.574219 199.828125 L 797.105469 126.46875 L 829.664062 126.46875 L 826.261719 133.269531 L 826.261719 239.582031 Z M 829.664062 246.382812 " fill-opacity="1" fill-rule="nonzero"></path><path fill="#000000" d="M 920.933594 139.023438 L 924.332031 141.636719 L 923.808594 146.082031 L 923.808594 226.503906 L 924.332031 230.949219 L 920.933594 233.828125 L 911.253906 243.503906 L 909.164062 246.382812 L 861.960938 246.382812 L 859.867188 243.503906 L 850.191406 233.828125 L 846.53125 230.949219 L 847.054688 226.503906 L 847.054688 146.082031 L 846.53125 141.636719 L 850.191406 138.761719 L 859.867188 129.082031 L 861.960938 126.207031 L 909.164062 126.207031 L 911.253906 129.082031 L 911.125 129.082031 Z M 871.242188 155.105469 L 871.242188 218.136719 L 875.820312 222.710938 L 895.042969 222.710938 L 899.617188 218.136719 L 899.617188 155.105469 L 895.042969 150.53125 L 875.820312 150.53125 Z M 871.242188 155.105469 " fill-opacity="1" fill-rule="nonzero"></path><path fill="#000000" d="M 122.300781 104.410156 C 124.578125 100.667969 126.328125 96.683594 127.347656 92.734375 L 120.226562 88.140625 L 115.140625 95.910156 L 106.675781 92.003906 L 102.6875 100.425781 L 93.777344 97.738281 L 91.011719 106.609375 L 81.816406 105.183594 L 80.308594 114.378906 L 70.992188 114.257812 L 70.789062 123.570312 L 61.550781 124.75 L 62.652344 133.988281 L 53.660156 136.425781 L 56.019531 145.417969 L 47.472656 149.078125 L 51.054688 157.664062 L 43.121094 162.503906 L 47.882812 170.519531 L 40.679688 176.417969 L 46.496094 183.65625 L 40.191406 190.492188 L 46.984375 196.878906 L 41.695312 204.527344 L 49.304688 209.9375 L 45.113281 218.238281 L 53.375 222.507812 L 50.402344 231.335938 L 59.191406 234.386719 L 57.441406 243.539062 L 66.558594 245.371094 L 66.109375 254.644531 L 75.386719 255.175781 L 76.242188 264.449219 L 85.519531 263.675781 L 87.632812 272.75 L 96.707031 270.714844 L 100.085938 279.378906 L 108.792969 276.085938 L 113.347656 284.222656 L 121.527344 279.746094 L 127.144531 287.148438 L 134.589844 281.578125 L 141.179688 288.125 L 147.773438 281.578125 L 155.21875 287.148438 L 160.832031 279.746094 L 169.011719 284.222656 L 173.570312 276.085938 L 182.359375 279.339844 L 185.734375 270.675781 L 194.808594 272.707031 L 196.925781 263.636719 L 206.199219 264.410156 L 207.054688 255.132812 L 216.332031 254.605469 L 215.886719 245.328125 L 225 243.5 L 223.25 234.347656 L 232.039062 231.296875 L 229.066406 222.46875 L 237.328125 218.195312 L 233.21875 209.9375 L 240.828125 204.566406 L 235.539062 196.917969 L 242.332031 190.53125 L 236.027344 183.699219 L 241.84375 176.457031 L 234.640625 170.558594 L 239.402344 162.542969 L 231.46875 157.703125 L 235.050781 149.121094 L 226.503906 145.457031 L 228.863281 136.46875 L 219.871094 134.027344 L 220.972656 124.792969 L 211.734375 123.613281 L 211.53125 114.296875 L 202.214844 114.417969 L 200.667969 105.226562 L 191.472656 106.648438 L 188.703125 97.78125 L 179.792969 100.464844 L 175.804688 92.042969 L 172.714844 93.46875 C 173.855469 104.207031 170.4375 114.703125 162.054688 128.046875 C 155.707031 138.21875 147.363281 144.523438 145.980469 161.648438 C 139.511719 141.554688 145.820312 134.3125 149.726562 124.628906 C 154.445312 112.953125 155.257812 101.523438 153.183594 91.757812 L 148.300781 86.1875 L 141.261719 92.246094 L 138.089844 89.523438 C 138.578125 91.921875 138.902344 94.527344 139.066406 97.292969 C 139.878906 115.234375 126.980469 129.1875 122.871094 136.753906 C 118.433594 144.890625 118.191406 156.523438 123.929688 164.496094 C 131.210938 174.789062 146.550781 174.910156 158.308594 171.167969 C 156.316406 174.097656 153.019531 176.011719 146.875 178.125 C 132.796875 183.007812 123.804688 179.140625 114.40625 180.320312 C 108.507812 181.054688 101.550781 182.558594 104.113281 187.359375 C 106.636719 191.996094 114.570312 195.375 118.597656 196.105469 C 122.585938 196.796875 130.277344 195.375 135.648438 191.507812 C 140.976562 187.605469 153.671875 176.945312 159.367188 174.21875 C 168.441406 169.90625 177.191406 169.378906 187.808594 172.796875 C 198.347656 176.171875 207.625 184.554688 206.769531 193.015625 C 206.121094 199.808594 199.285156 207.253906 186.425781 213.476562 C 179.46875 216.8125 161.726562 223.242188 129.136719 222.140625 C 98.90625 221.164062 79.375 211.890625 72.863281 199.847656 C 82.628906 209.082031 93.046875 211.851562 104.5625 213.761719 C 138.210938 219.253906 173.691406 207.171875 177.679688 200.011719 C 183.414062 189.800781 166.53125 187.320312 158.472656 189.71875 C 150.703125 192.078125 142.808594 200.621094 126.9375 205.21875 C 115.871094 208.433594 100.65625 208.230469 92.394531 205.625 C 83.484375 202.777344 74.085938 198.425781 72.539062 191.019531 C 70.625 181.664062 96.382812 162.871094 122.21875 172.550781 C 118.273438 171.210938 114.773438 168.441406 112.007812 164.824219 C 112.007812 164.824219 111.558594 164.253906 111.558594 164.253906 C 111.394531 164.050781 111.273438 163.847656 111.113281 163.601562 C 83.441406 168.078125 63.425781 178.574219 63.425781 192.851562 C 63.425781 211.929688 99.027344 226.902344 141.222656 226.902344 C 183.375 226.902344 219.019531 211.929688 219.019531 192.851562 C 219.019531 179.34375 200.953125 165.433594 153.550781 161.566406 C 198.878906 163.316406 226.503906 176.660156 226.503906 196.390625 C 226.503906 220.066406 189.03125 238.578125 141.179688 238.578125 C 115.464844 238.578125 92.761719 233.207031 77.21875 224.582031 C 77.21875 224.582031 77.175781 224.582031 76.402344 224.09375 C 75.875 223.808594 75.347656 223.484375 74.816406 223.160156 L 74.777344 223.117188 C 73.679688 222.46875 78.480469 235.648438 85.679688 249.398438 C 85.113281 248.992188 63.546875 234.550781 56.140625 199.5625 C 56.058594 199.117188 56.019531 198.667969 55.976562 198.179688 L 55.9375 197.855469 L 55.976562 197.855469 C 55.9375 197.367188 55.898438 196.878906 55.898438 196.351562 C 55.898438 178.003906 78.355469 166.980469 110.664062 162.953125 C 106.269531 156.199219 104.113281 147.167969 105.414062 138.460938 C 107.652344 124.101562 119.65625 108.765625 122.300781 104.410156 Z M 122.300781 104.410156 " fill-opacity="1" fill-rule="nonzero"></path><path fill="#000000" d="M 122.300781 104.410156 C 124.578125 100.667969 126.328125 96.683594 127.347656 92.734375 L 120.226562 88.140625 L 115.140625 95.910156 L 106.675781 92.003906 L 102.6875 100.425781 L 93.777344 97.738281 L 91.011719 106.609375 L 81.816406 105.183594 L 80.308594 114.378906 L 70.992188 114.257812 L 70.789062 123.570312 L 61.550781 124.75 L 62.652344 133.988281 L 53.660156 136.425781 L 56.019531 145.417969 L 47.472656 149.078125 L 51.054688 157.664062 L 43.121094 162.503906 L 47.882812 170.519531 L 40.679688 176.417969 L 46.496094 183.65625 L 40.191406 190.492188 L 46.984375 196.878906 L 41.695312 204.527344 L 49.304688 209.9375 L 45.113281 218.238281 L 53.375 222.507812 L 50.402344 231.335938 L 59.191406 234.386719 L 57.441406 243.539062 L 66.558594 245.371094 L 66.109375 254.644531 L 75.386719 255.175781 L 76.242188 264.449219 L 85.519531 263.675781 L 87.632812 272.75 L 96.707031 270.714844 L 100.085938 279.378906 L 108.792969 276.085938 L 113.347656 284.222656 L 121.527344 279.746094 L 127.144531 287.148438 L 134.589844 281.578125 L 141.179688 288.125 L 147.773438 281.578125 L 155.21875 287.148438 L 160.832031 279.746094 L 169.011719 284.222656 L 173.570312 276.085938 L 182.359375 279.339844 L 185.734375 270.675781 L 194.808594 272.707031 L 196.925781 263.636719 L 206.199219 264.410156 L 207.054688 255.132812 L 216.332031 254.605469 L 215.886719 245.328125 L 225 243.5 L 223.25 234.347656 L 232.039062 231.296875 L 229.066406 222.46875 L 237.328125 218.195312 L 233.21875 209.9375 L 240.828125 204.566406 L 235.539062 196.917969 L 242.332031 190.53125 L 236.027344 183.699219 L 241.84375 176.457031 L 234.640625 170.558594 L 239.402344 162.542969 L 231.46875 157.703125 L 235.050781 149.121094 L 226.503906 145.457031 L 228.863281 136.46875 L 219.871094 134.027344 L 220.972656 124.792969 L 211.734375 123.613281 L 211.53125 114.296875 L 202.214844 114.417969 L 200.667969 105.226562 L 191.472656 106.648438 L 188.703125 97.78125 L 179.792969 100.464844 L 175.804688 92.042969 L 172.714844 93.46875 C 173.855469 104.207031 170.4375 114.703125 162.054688 128.046875 C 155.707031 138.21875 147.363281 144.523438 145.980469 161.648438 C 139.511719 141.554688 145.820312 134.3125 149.726562 124.628906 C 154.445312 112.953125 155.257812 101.523438 153.183594 91.757812 L 148.300781 86.1875 L 141.261719 92.246094 L 138.089844 89.523438 C 138.578125 91.921875 138.902344 94.527344 139.066406 97.292969 C 139.878906 115.234375 126.980469 129.1875 122.871094 136.753906 C 118.433594 144.890625 118.191406 156.523438 123.929688 164.496094 C 131.210938 174.789062 146.550781 174.910156 158.308594 171.167969 C 156.316406 174.097656 153.019531 176.011719 146.875 178.125 C 132.796875 183.007812 123.804688 179.140625 114.40625 180.320312 C 108.507812 181.054688 101.550781 182.558594 104.113281 187.359375 C 106.636719 191.996094 114.570312 195.375 118.597656 196.105469 C 122.585938 196.796875 130.277344 195.375 135.648438 191.507812 C 140.976562 187.605469 153.671875 176.945312 159.367188 174.21875 C 168.441406 169.90625 177.191406 169.378906 187.808594 172.796875 C 198.347656 176.171875 207.625 184.554688 206.769531 193.015625 C 206.121094 199.808594 199.285156 207.253906 186.425781 213.476562 C 179.46875 216.8125 161.726562 223.242188 129.136719 222.140625 C 98.90625 221.164062 79.375 211.890625 72.863281 199.847656 C 82.628906 209.082031 93.046875 211.851562 104.5625 213.761719 C 138.210938 219.253906 173.691406 207.171875 177.679688 200.011719 C 183.414062 189.800781 166.53125 187.320312 158.472656 189.71875 C 150.703125 192.078125 142.808594 200.621094 126.9375 205.21875 C 115.871094 208.433594 100.65625 208.230469 92.394531 205.625 C 83.484375 202.777344 74.085938 198.425781 72.539062 191.019531 C 70.625 181.664062 96.382812 162.871094 122.21875 172.550781 C 118.273438 171.210938 114.773438 168.441406 112.007812 164.824219 C 112.007812 164.824219 111.558594 164.253906 111.558594 164.253906 C 111.394531 164.050781 111.273438 163.847656 111.113281 163.601562 C 83.441406 168.078125 63.425781 178.574219 63.425781 192.851562 C 63.425781 211.929688 99.027344 226.902344 141.222656 226.902344 C 183.375 226.902344 219.019531 211.929688 219.019531 192.851562 C 219.019531 179.34375 200.953125 165.433594 153.550781 161.566406 C 198.878906 163.316406 226.503906 176.660156 226.503906 196.390625 C 226.503906 220.066406 189.03125 238.578125 141.179688 238.578125 C 115.464844 238.578125 92.761719 233.207031 77.21875 224.582031 C 77.21875 224.582031 77.175781 224.582031 76.402344 224.09375 C 75.875 223.808594 75.347656 223.484375 74.816406 223.160156 L 74.777344 223.117188 C 73.679688 222.46875 78.480469 235.648438 85.679688 249.398438 C 85.113281 248.992188 63.546875 234.550781 56.140625 199.5625 C 56.058594 199.117188 56.019531 198.667969 55.976562 198.179688 L 55.9375 197.855469 L 55.976562 197.855469 C 55.9375 197.367188 55.898438 196.878906 55.898438 196.351562 C 55.898438 178.003906 78.355469 166.980469 110.664062 162.953125 C 106.269531 156.199219 104.113281 147.167969 105.414062 138.460938 C 107.652344 124.101562 119.65625 108.765625 122.300781 104.410156 Z M 122.300781 104.410156 " fill-opacity="1" fill-rule="nonzero"></path></svg> 