<?xml version="1.0" encoding="UTF-8"?> <svg xmlns="http://www.w3.org/2000/svg" width="57" height="18" fill="none"><path d="m20.561 17.055 2.848-16.021h4.45L25.1 17.055h-4.539z" fill="#3c58bf"></path><path d="M20.561 17.055 24.21 1.034h3.649L25.1 17.055h-4.539z" fill="#293688"></path><path d="M41.21 1.212C40.32.856 38.896.5 37.115.5c-4.45 0-7.655 2.225-7.655 5.429 0 2.403 2.225 3.649 4.005 4.45s2.314 1.335 2.314 2.047c0 1.068-1.424 1.602-2.67 1.602-1.78 0-2.759-.267-4.272-.89l-.623-.267-.623 3.649c1.068.445 3.026.89 5.073.89 4.717 0 7.832-2.225 7.832-5.607 0-1.869-1.157-3.293-3.827-4.45-1.602-.801-2.581-1.246-2.581-2.047 0-.712.801-1.424 2.581-1.424 1.513 0 2.581.267 3.382.623l.445.178.712-3.471z" fill="#3c58bf"></path><path d="M41.21 1.212C40.32.856 38.896.5 37.115.5c-4.45 0-6.853 2.225-6.853 5.429 0 2.403 1.424 3.649 3.204 4.45s2.314 1.335 2.314 2.047c0 1.068-1.424 1.602-2.67 1.602-1.78 0-2.759-.267-4.272-.89l-.623-.267-.623 3.649c1.068.445 3.026.89 5.073.89 4.717 0 7.832-2.225 7.832-5.607 0-1.869-1.157-3.293-3.827-4.45-1.602-.801-2.581-1.246-2.581-2.047 0-.712.801-1.424 2.581-1.424 1.513 0 2.581.267 3.382.623l.445.178.712-3.471z" fill="#293688"></path><path d="M48.865 1.034c-1.068 0-1.869.089-2.314 1.157l-6.675 14.864h4.806l.89-2.67h5.696l.534 2.67h4.272L52.336 1.034h-3.471zm-2.047 10.681 1.78-4.717.623-1.602.267 1.513 1.068 4.895h-3.738v-.089z" fill="#3c58bf"></path><path d="M49.933 1.034c-1.068 0-1.869.089-2.314 1.157l-7.743 14.864h4.806l.89-2.67h5.696l.534 2.67h4.272L52.336 1.034h-2.403zm-3.115 10.681 1.78-4.717.623-1.602.267 1.513 1.068 4.895h-3.738v-.089z" fill="#293688"></path><path d="m12.372 12.249-.445-2.314c-.801-2.67-3.382-5.607-6.23-7.031l4.005 14.241h4.806l7.21-16.021h-4.806L12.373 12.25z" fill="#3c58bf"></path><path d="m12.372 12.249-.445-2.314c-.801-2.67-3.382-5.607-6.23-7.031l4.005 14.241h4.806l7.21-16.021h-3.916L12.373 12.25z" fill="#293688"></path><path d="m0 1.034.801.178c5.696 1.335 9.613 4.717 11.126 8.723L10.325 2.37c-.267-1.068-1.068-1.335-2.047-1.335H0z" fill="#ffbc00"></path><path d="M0 1.034C5.696 2.369 10.414 5.84 11.927 9.845l-1.513-6.319a2.17 2.17 0 0 0-2.136-1.691L0 1.034z" fill="#f7981d"></path><path d="M0 1.034C5.696 2.369 10.414 5.84 11.927 9.845l-1.068-3.471c-.267-1.068-.623-2.136-1.869-2.581L0 1.034z" fill="#ed7c00"></path><path d="m16.822 11.715-3.026-3.026-1.424 3.382-.356-2.225c-.801-2.67-3.382-5.607-6.23-7.031l4.004 14.24h4.806l2.225-5.34zm8.278 5.34-3.827-3.916-.712 3.916H25.1zm10.235-5.518c.356.356.534.623.445.979 0 1.068-1.424 1.602-2.67 1.602-1.78 0-2.759-.267-4.272-.89l-.623-.267-.623 3.649c1.068.445 3.026.89 5.073.89 2.848 0 5.162-.801 6.497-2.225l-3.827-3.738zm5.162 5.518h4.183l.89-2.67h5.696l.534 2.67h4.272l-1.513-6.497-5.34-5.162.267 1.424 1.068 4.895h-3.738l1.78-4.717.623-1.602" fill="#051244"></path></svg> 